<svg xmlns="http://www.w3.org/2000/svg" width="163.589" height="35.005" viewBox="0 0 163.589 35.005">
  <g id="Group_673" data-name="Group 673" transform="translate(-153.106 -85)">
    <g id="Group_25" data-name="Group 25" transform="translate(153.106 85)">
      <g id="Group_20" data-name="Group 20" transform="translate(39.589 9.055)">
        <g id="Group_11" data-name="Group 11" transform="translate(0 4.954)">
          <path id="Path_11" data-name="Path 11" d="M205.285,114.663a7.326,7.326,0,0,1-2.867-.54,6.46,6.46,0,0,1-3.583-3.634,6.931,6.931,0,0,1-.491-2.59,7.338,7.338,0,0,1,.478-2.652,6.462,6.462,0,0,1,1.384-2.188,6.6,6.6,0,0,1,2.2-1.5,7.33,7.33,0,0,1,2.9-.553,7.15,7.15,0,0,1,2.879.553,6.629,6.629,0,0,1,2.162,1.484,6.312,6.312,0,0,1,1.358,2.162,7.212,7.212,0,0,1,.466,2.565q0,.327-.013.628a2.541,2.541,0,0,1-.063.5H201.915a3.892,3.892,0,0,0,.377,1.383,3.388,3.388,0,0,0,1.861,1.685,3.562,3.562,0,0,0,1.258.226,3.879,3.879,0,0,0,1.9-.49,2.6,2.6,0,0,0,1.22-1.3l2.892.8a5.88,5.88,0,0,1-2.326,2.477A7.209,7.209,0,0,1,205.285,114.663Zm3.42-7.946a3.509,3.509,0,0,0-1.094-2.377,3.431,3.431,0,0,0-4.664.013,3.447,3.447,0,0,0-.742,1.031,3.637,3.637,0,0,0-.34,1.333Z" transform="translate(-198.344 -101.008)" fill="#333"/>
        </g>
        <g id="Group_12" data-name="Group 12" transform="translate(14.234 5.181)">
          <path id="Path_12" data-name="Path 12" d="M219.462,114.444l-4.853-13.177h3.47l3.345,10.436,3.37-10.436h3.168l-4.853,13.177Z" transform="translate(-214.609 -101.267)" fill="#333"/>
        </g>
        <g id="Group_13" data-name="Group 13" transform="translate(28.064 4.954)">
          <path id="Path_13" data-name="Path 13" d="M237.354,114.663a7.329,7.329,0,0,1-2.867-.54,6.6,6.6,0,0,1-2.188-1.471,6.531,6.531,0,0,1-1.395-2.163,6.931,6.931,0,0,1-.491-2.59,7.338,7.338,0,0,1,.478-2.652,6.462,6.462,0,0,1,1.384-2.188,6.6,6.6,0,0,1,2.2-1.5,7.33,7.33,0,0,1,2.9-.553,7.147,7.147,0,0,1,2.879.553,6.629,6.629,0,0,1,2.162,1.484,6.313,6.313,0,0,1,1.358,2.162,7.193,7.193,0,0,1,.466,2.565q0,.327-.013.628a2.475,2.475,0,0,1-.063.5H233.984a3.892,3.892,0,0,0,.377,1.383,3.4,3.4,0,0,0,1.86,1.685,3.562,3.562,0,0,0,1.258.226,3.885,3.885,0,0,0,1.9-.49,2.6,2.6,0,0,0,1.219-1.3l2.892.8a5.88,5.88,0,0,1-2.326,2.477A7.209,7.209,0,0,1,237.354,114.663Zm3.42-7.946a3.505,3.505,0,0,0-1.094-2.377,3.431,3.431,0,0,0-4.664.013,3.447,3.447,0,0,0-.742,1.031,3.637,3.637,0,0,0-.34,1.333Z" transform="translate(-230.413 -101.008)" fill="#333"/>
        </g>
        <g id="Group_14" data-name="Group 14" transform="translate(43.957 5.004)">
          <path id="Path_14" data-name="Path 14" d="M256.419,104.159a6.644,6.644,0,0,0-2.741.591,3.465,3.465,0,0,0-1.735,1.7v7.972h-3.369V101.242h3.093v2.816a6,6,0,0,1,.831-1.22,6.394,6.394,0,0,1,1.031-.943,4.747,4.747,0,0,1,1.119-.616,3.084,3.084,0,0,1,1.094-.214h.415a1.352,1.352,0,0,1,.263.025Z" transform="translate(-248.574 -101.065)" fill="#333"/>
        </g>
        <g id="Group_15" data-name="Group 15" transform="translate(52.709 4.929)">
          <path id="Path_15" data-name="Path 15" d="M264.534,114.659a10.2,10.2,0,0,1-3.244-.528,7.906,7.906,0,0,1-2.715-1.509l1.257-2.113a10.843,10.843,0,0,0,2.351,1.3,6.312,6.312,0,0,0,2.276.44,2.879,2.879,0,0,0,1.584-.377,1.215,1.215,0,0,0,.578-1.082,1.079,1.079,0,0,0-.679-1.031,14.7,14.7,0,0,0-2.212-.754q-1.282-.352-2.188-.679a5.608,5.608,0,0,1-1.459-.742,2.52,2.52,0,0,1-.8-.956,3.042,3.042,0,0,1-.252-1.3,4.088,4.088,0,0,1,.39-1.81,3.94,3.94,0,0,1,1.094-1.371,5.077,5.077,0,0,1,1.646-.867,6.69,6.69,0,0,1,2.05-.3,8.806,8.806,0,0,1,2.779.428,6.772,6.772,0,0,1,2.376,1.383L268,104.827a7.892,7.892,0,0,0-1.949-1.106,5.319,5.319,0,0,0-1.874-.353,2.7,2.7,0,0,0-1.433.353,1.224,1.224,0,0,0-.578,1.132,1.086,1.086,0,0,0,.138.578,1.2,1.2,0,0,0,.44.4,4.2,4.2,0,0,0,.792.34q.491.164,1.22.34,1.357.353,2.326.7a6.337,6.337,0,0,1,1.584.8,2.879,2.879,0,0,1,.906,1.044,3.207,3.207,0,0,1,.289,1.42,3.663,3.663,0,0,1-1.433,3.055A6.173,6.173,0,0,1,264.534,114.659Z" transform="translate(-258.574 -100.979)" fill="#333"/>
        </g>
        <g id="Group_16" data-name="Group 16" transform="translate(65.358 4.954)">
          <path id="Path_16" data-name="Path 16" d="M279.969,114.663a7.326,7.326,0,0,1-2.867-.54,6.6,6.6,0,0,1-2.189-1.471,6.532,6.532,0,0,1-1.395-2.163,6.93,6.93,0,0,1-.49-2.59,7.319,7.319,0,0,1,.478-2.652,6.446,6.446,0,0,1,1.383-2.188,6.613,6.613,0,0,1,2.2-1.5,7.333,7.333,0,0,1,2.9-.553,7.147,7.147,0,0,1,2.879.553,6.634,6.634,0,0,1,2.163,1.484,6.31,6.31,0,0,1,1.357,2.162,7.193,7.193,0,0,1,.466,2.565q0,.327-.012.628a2.6,2.6,0,0,1-.063.5H276.6a3.911,3.911,0,0,0,.377,1.383,3.394,3.394,0,0,0,1.861,1.685,3.553,3.553,0,0,0,1.257.226,3.882,3.882,0,0,0,1.9-.49,2.6,2.6,0,0,0,1.219-1.3l2.892.8a5.879,5.879,0,0,1-2.326,2.477A7.207,7.207,0,0,1,279.969,114.663Zm3.42-7.946a3.513,3.513,0,0,0-1.094-2.377,3.433,3.433,0,0,0-4.665.013,3.463,3.463,0,0,0-.742,1.031,3.636,3.636,0,0,0-.339,1.333Z" transform="translate(-273.028 -101.008)" fill="#333"/>
        </g>
        <g id="Group_17" data-name="Group 17" transform="translate(79.541 0.503)">
          <path id="Path_17" data-name="Path 17" d="M296.05,95.922h3.067l6.79,17.854h-3.571l-1.659-4.451H294.44l-1.635,4.451h-3.571Zm4,10.964-2.465-7.017-2.564,7.017Z" transform="translate(-289.235 -95.922)" fill="#333"/>
        </g>
        <g id="Group_18" data-name="Group 18" transform="translate(96.666)">
          <path id="Path_18" data-name="Path 18" d="M315.065,113.956a5.985,5.985,0,0,1-2.514-.528,5.916,5.916,0,0,1-1.987-1.459,6.806,6.806,0,0,1-1.3-2.175,7.58,7.58,0,0,1-.465-2.679,7.875,7.875,0,0,1,.439-2.666,7,7,0,0,1,1.22-2.162,5.609,5.609,0,0,1,1.861-1.458,5.3,5.3,0,0,1,2.364-.529,5,5,0,0,1,2.627.7,5.1,5.1,0,0,1,1.824,1.835V95.347h3.369v14.485a1.251,1.251,0,0,0,.176.754.78.78,0,0,0,.6.251V113.7a7.653,7.653,0,0,1-1.433.176,2.334,2.334,0,0,1-1.483-.452,1.663,1.663,0,0,1-.655-1.181l-.075-.83a4.785,4.785,0,0,1-1.973,1.9A5.616,5.616,0,0,1,315.065,113.956Zm.88-2.866a3.157,3.157,0,0,0,.981-.164,3.446,3.446,0,0,0,.93-.466,4.063,4.063,0,0,0,.767-.7,2.943,2.943,0,0,0,.516-.88v-3.143a3.729,3.729,0,0,0-.566-1.019,4.2,4.2,0,0,0-.83-.8,4.317,4.317,0,0,0-.981-.541,2.793,2.793,0,0,0-1.018-.2,3.038,3.038,0,0,0-1.4.326,3.323,3.323,0,0,0-1.094.894,4.272,4.272,0,0,0-.7,1.294,4.59,4.59,0,0,0-.251,1.509,4.158,4.158,0,0,0,.277,1.535,3.975,3.975,0,0,0,.754,1.232,3.435,3.435,0,0,0,1.144.83A3.525,3.525,0,0,0,315.945,111.09Z" transform="translate(-308.804 -95.347)" fill="#333"/>
        </g>
        <g id="Group_19" data-name="Group 19" transform="translate(112.709 4.929)">
          <path id="Path_19" data-name="Path 19" d="M333.1,114.659a10.2,10.2,0,0,1-3.243-.528,7.909,7.909,0,0,1-2.716-1.509l1.258-2.113a10.821,10.821,0,0,0,2.351,1.3,6.3,6.3,0,0,0,2.275.44,2.884,2.884,0,0,0,1.585-.377,1.216,1.216,0,0,0,.578-1.082,1.08,1.08,0,0,0-.678-1.031,14.749,14.749,0,0,0-2.213-.754q-1.282-.352-2.188-.679a5.622,5.622,0,0,1-1.459-.742,2.52,2.52,0,0,1-.8-.956,3.043,3.043,0,0,1-.251-1.3,4.1,4.1,0,0,1,.389-1.81,3.939,3.939,0,0,1,1.094-1.371,5.082,5.082,0,0,1,1.647-.867,6.683,6.683,0,0,1,2.05-.3,8.8,8.8,0,0,1,2.779.428,6.783,6.783,0,0,1,2.377,1.383l-1.358,2.037a7.878,7.878,0,0,0-1.949-1.106,5.316,5.316,0,0,0-1.874-.353,2.7,2.7,0,0,0-1.433.353,1.224,1.224,0,0,0-.578,1.132,1.094,1.094,0,0,0,.138.578,1.2,1.2,0,0,0,.44.4,4.212,4.212,0,0,0,.793.34q.49.164,1.219.34,1.359.353,2.326.7a6.321,6.321,0,0,1,1.584.8,2.862,2.862,0,0,1,.906,1.044,3.206,3.206,0,0,1,.289,1.42,3.663,3.663,0,0,1-1.433,3.055A6.171,6.171,0,0,1,333.1,114.659Z" transform="translate(-327.136 -100.979)" fill="#333"/>
        </g>
      </g>
      <g id="Group_24" data-name="Group 24">
        <g id="Group_21" data-name="Group 21">
          <path id="Path_20" data-name="Path 20" d="M184,107.374a.3.3,0,0,1,.075-.411,12.134,12.134,0,0,0,4.892-9.744v-.062A12.158,12.158,0,0,0,176.81,85h-14.7a.3.3,0,0,0-.3.3V96.9a.3.3,0,0,0,.3.3h2.435a.3.3,0,0,0,.3-.3V88.348a.3.3,0,0,1,.3-.3H176.81a9.114,9.114,0,0,1,9.114,9.114v.062a9.136,9.136,0,0,1-3.844,7.432l-2.147,1.525a.3.3,0,0,0-.079.415l6.464,9.9a.3.3,0,0,1-.256.471h-2.908a.3.3,0,0,1-.255-.138l-6.76-10.353a.3.3,0,0,0-.255-.137H153.41a.3.3,0,0,0-.215.519l5.049,5.06a.3.3,0,0,0,.52-.214v-2.016a.3.3,0,0,1,.3-.3h15.168a.3.3,0,0,1,.255.138l6.76,10.352a.3.3,0,0,0,.255.138h10.179a.3.3,0,0,0,.255-.471Z" transform="translate(-153.106 -85)" fill="#333"/>
        </g>
        <g id="Group_22" data-name="Group 22" transform="translate(8.703 27.42)">
          <path id="Path_21" data-name="Path 21" d="M168.834,120.874H166.4a.3.3,0,0,1-.3-.3v-3.932a.3.3,0,0,0-.3-.3h-2.435a.3.3,0,0,0-.3.3v6.976a.3.3,0,0,0,.3.3h8.524a.3.3,0,0,0,.3-.3v-6.976a.3.3,0,0,0-.3-.3h-2.435a.3.3,0,0,0-.3.3v3.932A.3.3,0,0,1,168.834,120.874Z" transform="translate(-163.051 -116.333)" fill="#333"/>
        </g>
        <g id="Group_23" data-name="Group 23" transform="translate(0 6.088)">
          <path id="Path_22" data-name="Path 22" d="M176.81,91.957H168.2a.3.3,0,0,0-.3.3v5.5a.3.3,0,0,0,.3.3h2.435a.3.3,0,0,0,.3-.3v-2.46a.3.3,0,0,1,.3-.3h5.566a3.026,3.026,0,0,1,3.025,3.025v.062a3.026,3.026,0,0,1-3.025,3.025H159.069a.3.3,0,0,1-.3-.3V98.793a.3.3,0,0,0-.52-.214l-5.049,5.06a.3.3,0,0,0,.215.519h23.4a6.069,6.069,0,0,0,6.069-6.069v-.062A6.069,6.069,0,0,0,176.81,91.957Z" transform="translate(-153.106 -91.957)" fill="#333"/>
        </g>
      </g>
    </g>
  </g>
</svg>
