<svg xmlns="http://www.w3.org/2000/svg" xmlns:xlink="http://www.w3.org/1999/xlink" width="338.961" height="51.519" viewBox="0 0 338.961 51.519">
  <defs>
    <clipPath id="clip-path">
      <rect id="Rectangle_1607" data-name="Rectangle 1607" width="338.961" height="51.519" fill="none"/>
    </clipPath>
  </defs>
  <g id="Group_2036" data-name="Group 2036" clip-path="url(#clip-path)">
    <g id="Component_179_1" data-name="Component 179 – 1" transform="translate(72.158)">
      <path id="Path_2715" data-name="Path 2715" d="M214.84,0a25.76,25.76,0,1,1-25.76,25.76A25.76,25.76,0,0,1,214.84,0" transform="translate(-189.08)" fill="#aaa"/>
      <path id="Path_2716" data-name="Path 2716" d="M230.3,27.922c4.331,0,4.844.016,6.554.094a8.97,8.97,0,0,1,3.011.559,5.37,5.37,0,0,1,3.078,3.078,8.98,8.98,0,0,1,.559,3.011c.078,1.71.094,2.223.094,6.554s-.016,4.844-.094,6.554a8.98,8.98,0,0,1-.559,3.011,5.37,5.37,0,0,1-3.078,3.078,8.97,8.97,0,0,1-3.011.559c-1.71.078-2.223.094-6.554.094s-4.844-.016-6.554-.094a8.97,8.97,0,0,1-3.011-.559,5.37,5.37,0,0,1-3.078-3.078,8.97,8.97,0,0,1-.559-3.011c-.078-1.71-.094-2.223-.094-6.554s.016-4.844.094-6.554a8.97,8.97,0,0,1,.559-3.011,5.37,5.37,0,0,1,3.078-3.078,8.971,8.971,0,0,1,3.011-.559c1.71-.078,2.223-.094,6.554-.094m0-2.922c-4.4,0-4.957.019-6.687.1a11.907,11.907,0,0,0-3.937.754,8.293,8.293,0,0,0-4.744,4.744,11.907,11.907,0,0,0-.754,3.937c-.079,1.73-.1,2.282-.1,6.687s.019,4.957.1,6.687a11.907,11.907,0,0,0,.754,3.937,8.293,8.293,0,0,0,4.744,4.744,11.907,11.907,0,0,0,3.937.754c1.73.079,2.282.1,6.687.1s4.957-.019,6.687-.1a11.906,11.906,0,0,0,3.937-.754,8.293,8.293,0,0,0,4.744-4.744,11.906,11.906,0,0,0,.754-3.937c.079-1.73.1-2.282.1-6.687s-.019-4.957-.1-6.687a11.906,11.906,0,0,0-.754-3.937,8.293,8.293,0,0,0-4.744-4.744,11.906,11.906,0,0,0-3.937-.754c-1.73-.079-2.282-.1-6.687-.1" transform="translate(-204.541 -15.459)" fill="#fff"/>
      <path id="Path_2717" data-name="Path 2717" d="M243.085,45.676A8.329,8.329,0,1,0,251.413,54a8.329,8.329,0,0,0-8.329-8.329m0,13.735A5.406,5.406,0,1,1,248.491,54a5.407,5.407,0,0,1-5.406,5.406" transform="translate(-217.326 -28.244)" fill="#fff"/>
      <path id="Path_2718" data-name="Path 2718" d="M278.06,41.659a1.946,1.946,0,1,1-1.946-1.946,1.946,1.946,0,0,1,1.946,1.946" transform="translate(-241.697 -24.558)" fill="#fff"/>
    </g>
    <path id="Path_2719" data-name="Path 2719" d="M804.728,25.76A25.76,25.76,0,1,1,778.969,0a25.76,25.76,0,0,1,25.76,25.76" transform="translate(-465.767)" fill="#aaa" fill-rule="evenodd"/>
    <path id="Path_2720" data-name="Path 2720" d="M790.08,62.47c12.581,0,19.462-10.423,19.462-19.462q0-.444-.02-.884a13.925,13.925,0,0,0,3.412-3.541,13.653,13.653,0,0,1-3.928,1.077,6.864,6.864,0,0,0,3.008-3.784,13.711,13.711,0,0,1-4.343,1.66,6.846,6.846,0,0,0-11.657,6.238,19.419,19.419,0,0,1-14.1-7.146,6.845,6.845,0,0,0,2.117,9.131,6.793,6.793,0,0,1-3.1-.856c0,.029,0,.057,0,.087a6.843,6.843,0,0,0,5.487,6.706,6.833,6.833,0,0,1-3.089.117,6.848,6.848,0,0,0,6.39,4.751,13.724,13.724,0,0,1-8.5,2.928,13.887,13.887,0,0,1-1.632-.095A19.364,19.364,0,0,0,790.08,62.47" transform="translate(-482.084 -21.875)" fill="#fff"/>
    <path id="Path_2721" data-name="Path 2721" d="M429.255,25.76A25.76,25.76,0,1,1,403.5,0a25.76,25.76,0,0,1,25.76,25.76" transform="translate(-233.583)" fill="#aaa"/>
    <path id="Path_2722" data-name="Path 2722" d="M433.864,39.754a4.3,4.3,0,0,0-3.037-3.037C428.149,36,417.409,36,417.409,36s-10.74,0-13.419.718a4.3,4.3,0,0,0-3.037,3.037,44.683,44.683,0,0,0-.718,8.267,44.683,44.683,0,0,0,.718,8.267,4.3,4.3,0,0,0,3.037,3.037c2.678.718,13.419.718,13.419.718s10.74,0,13.419-.718a4.3,4.3,0,0,0,3.037-3.037,44.687,44.687,0,0,0,.718-8.267,44.687,44.687,0,0,0-.718-8.267m-19.89,13.419v-10.3l8.923,5.152Z" transform="translate(-247.497 -22.262)" fill="#fff"/>
    <path id="Path_2723" data-name="Path 2723" d="M616.118,25.76A25.76,25.76,0,1,1,590.359,0a25.76,25.76,0,0,1,25.76,25.76" transform="translate(-349.135)" fill="#aaa"/>
    <path id="Path_2724" data-name="Path 2724" d="M627.5,53.031c.423-.476.772-.958,1.206-1.367a6.617,6.617,0,0,1,4.761-1.879,11.022,11.022,0,0,1,2.994.364,5.851,5.851,0,0,1,4.155,4.37,18.314,18.314,0,0,1,.553,5.007c.006,3.559-.01,7.117,0,10.675,0,.333-.093.421-.421.418q-2.749-.022-5.5,0c-.323,0-.392-.1-.391-.4q.015-5.079,0-10.158a9.14,9.14,0,0,0-.295-2.521,2.835,2.835,0,0,0-3.119-2.21c-2.174.115-3.3,1.191-3.582,3.4a12.7,12.7,0,0,0-.1,1.588c0,3.293,0,6.586.009,9.879,0,.329-.081.425-.416.422q-2.77-.025-5.54,0c-.3,0-.382-.077-.381-.377q.013-9.779,0-19.559c0-.322.105-.4.41-.395q2.63.019,5.261,0c.323,0,.406.1.4.407-.018.779-.006,1.559-.006,2.338" transform="translate(-384.279 -30.785)" fill="#fdfdfd"/>
    <path id="Path_2725" data-name="Path 2725" d="M600.744,61.292c0,3.225-.005,6.451.008,9.676,0,.358-.088.467-.459.463-1.832-.02-3.665-.015-5.5,0-.294,0-.382-.071-.382-.375q.013-9.8,0-19.591c0-.27.065-.366.352-.365,1.859.012,3.718.016,5.577,0,.357,0,.406.135.405.441q-.014,4.878-.006,9.755" transform="translate(-367.572 -31.596)" fill="#fdfdfd"/>
    <path id="Path_2726" data-name="Path 2726" d="M600.464,28.243a3.66,3.66,0,1,1-3.654-3.642,3.673,3.673,0,0,1,3.654,3.642" transform="translate(-366.786 -15.213)" fill="#fdfdfd"/>
    <path id="Path_2727" data-name="Path 2727" d="M51.519,25.76A25.76,25.76,0,1,0,21.735,51.206v-18H15.194V25.76h6.541V20.084c0-6.456,3.846-10.022,9.73-10.022a39.6,39.6,0,0,1,5.766.5V16.9H33.982c-3.2,0-4.2,1.986-4.2,4.023V25.76h7.144l-1.142,7.446h-6v18A25.766,25.766,0,0,0,51.519,25.76" fill="#aaa"/>
    <path id="Path_2728" data-name="Path 2728" d="M60.407,49.511l1.142-7.446H54.405V37.232c0-2.037,1-4.023,4.2-4.023h3.248V26.87a39.6,39.6,0,0,0-5.766-.5c-5.884,0-9.73,3.566-9.73,10.022v5.675h-6.54v7.446h6.54v18a26.041,26.041,0,0,0,8.05,0v-18Z" transform="translate(-24.621 -16.305)" fill="#fff"/>
  </g>
</svg>
