<svg id="Group_1927" data-name="Group 1927" xmlns="http://www.w3.org/2000/svg" xmlns:xlink="http://www.w3.org/1999/xlink" width="104.534" height="104" viewBox="0 0 104.534 104">
  <defs>
    <clipPath id="clip-path">
      <rect id="Rectangle_1490" data-name="Rectangle 1490" width="104.534" height="104" fill="none"/>
    </clipPath>
  </defs>
  <g id="Group_1926" data-name="Group 1926" clip-path="url(#clip-path)">
    <path id="Path_2638" data-name="Path 2638" d="M92,30.524A48.063,48.063,0,1,1,73.619,12.09" fill="none" stroke="#60c" stroke-linecap="round" stroke-linejoin="round" stroke-width="4"/>
    <path id="Path_2639" data-name="Path 2639" d="M85.855,35.9A40.056,40.056,0,1,1,69.216,18.725" fill="none" stroke="#60c" stroke-linecap="round" stroke-linejoin="round" stroke-width="4"/>
    <path id="Path_2640" data-name="Path 2640" d="M78.827,39.735A32.115,32.115,0,1,1,66.6,26.456" fill="none" stroke="#60c" stroke-linecap="round" stroke-linejoin="round" stroke-width="4"/>
    <path id="Path_2641" data-name="Path 2641" d="M73.844,48.1a24.5,24.5,0,1,1-13.9-16.569" fill="none" stroke="#60c" stroke-linecap="round" stroke-linejoin="round" stroke-width="4"/>
    <path id="Path_2642" data-name="Path 2642" d="M67.282,54.444A17.243,17.243,0,1,1,50.536,36.718" fill="none" stroke="#60c" stroke-linecap="round" stroke-linejoin="round" stroke-width="4"/>
    <line id="Line_9" data-name="Line 9" x1="51.506" y2="50.031" transform="translate(49.644 3.655)" fill="none" stroke="#60c" stroke-linecap="round" stroke-linejoin="round" stroke-width="4"/>
    <path id="Path_2643" data-name="Path 2643" d="M92.985,11.167,91.841,2l-9.6,9.33.814,9.907" fill="none" stroke="#60c" stroke-linecap="round" stroke-linejoin="round" stroke-width="4"/>
    <path id="Path_2644" data-name="Path 2644" d="M93.4,11.6l9.13,1.409-9.605,9.331-9.88-1.1" fill="none" stroke="#60c" stroke-linecap="round" stroke-linejoin="round" stroke-width="4"/>
  </g>
</svg>
