<svg id="Group_1933" data-name="Group 1933" xmlns="http://www.w3.org/2000/svg" xmlns:xlink="http://www.w3.org/1999/xlink" width="104" height="104" viewBox="0 0 104 104">
  <defs>
    <clipPath id="clip-path">
      <rect id="Rectangle_1493" data-name="Rectangle 1493" width="104" height="104" fill="none"/>
    </clipPath>
  </defs>
  <g id="Group_1932" data-name="Group 1932" clip-path="url(#clip-path)">
    <ellipse id="Ellipse_11" data-name="Ellipse 11" cx="14.261" cy="31.038" rx="14.261" ry="31.038" transform="translate(37.953 20.99)" fill="none" stroke="#60c" stroke-linecap="round" stroke-linejoin="round" stroke-width="4"/>
    <ellipse id="Ellipse_12" data-name="Ellipse 12" cx="31.038" cy="14.261" rx="31.038" ry="14.261" transform="translate(21.176 37.767)" fill="none" stroke="#60c" stroke-linecap="round" stroke-linejoin="round" stroke-width="4"/>
    <circle id="Ellipse_13" data-name="Ellipse 13" cx="31.305" cy="31.305" r="31.305" transform="translate(20.909 20.723)" fill="none" stroke="#60c" stroke-linecap="round" stroke-linejoin="round" stroke-width="4"/>
    <line id="Line_10" data-name="Line 10" y1="5.395" transform="translate(52.214 15.483)" fill="none" stroke="#60c" stroke-linecap="round" stroke-linejoin="round" stroke-width="4"/>
    <path id="Path_2651" data-name="Path 2651" d="M57.618,6.241A5.888,5.888,0,1,1,46.381,9.755,5.888,5.888,0,1,1,57.618,6.241Z" fill="none" stroke="#60c" stroke-linecap="round" stroke-linejoin="round" stroke-width="4"/>
    <line id="Line_11" data-name="Line 11" y2="5.395" transform="translate(51.786 83.122)" fill="none" stroke="#60c" stroke-linecap="round" stroke-linejoin="round" stroke-width="4"/>
    <path id="Path_2652" data-name="Path 2652" d="M46.382,97.759a5.888,5.888,0,1,1,7.411,3.976A5.948,5.948,0,0,1,46.382,97.759Z" fill="none" stroke="#60c" stroke-linecap="round" stroke-linejoin="round" stroke-width="4"/>
    <line id="Line_12" data-name="Line 12" x2="4.667" transform="translate(83.85 52.214)" fill="none" stroke="#60c" stroke-linecap="round" stroke-linejoin="round" stroke-width="4"/>
    <path id="Path_2653" data-name="Path 2653" d="M97.759,57.618a5.888,5.888,0,1,1,3.976-7.411A5.948,5.948,0,0,1,97.759,57.618Z" fill="none" stroke="#60c" stroke-linecap="round" stroke-linejoin="round" stroke-width="4"/>
    <line id="Line_13" data-name="Line 13" x1="5.395" transform="translate(15.483 51.786)" fill="none" stroke="#60c" stroke-linecap="round" stroke-linejoin="round" stroke-width="4"/>
    <path id="Path_2654" data-name="Path 2654" d="M6.241,46.382A5.888,5.888,0,1,1,9.755,57.619,5.888,5.888,0,1,1,6.241,46.382Z" fill="none" stroke="#60c" stroke-linecap="round" stroke-linejoin="round" stroke-width="4"/>
    <line id="Line_14" data-name="Line 14" y1="2.606" x2="2.606" transform="translate(75.367 26.33)" fill="none" stroke="#60c" stroke-linecap="round" stroke-linejoin="round" stroke-width="4"/>
    <path id="Path_2655" data-name="Path 2655" d="M88.329,23.616A5.888,5.888,0,1,1,85.9,15.564,5.947,5.947,0,0,1,88.329,23.616Z" fill="none" stroke="#60c" stroke-linecap="round" stroke-linejoin="round" stroke-width="4"/>
    <line id="Line_15" data-name="Line 15" x1="3.815" y2="3.815" transform="translate(26.027 73.855)" fill="none" stroke="#60c" stroke-linecap="round" stroke-linejoin="round" stroke-width="4"/>
    <path id="Path_2656" data-name="Path 2656" d="M15.671,80.384A5.888,5.888,0,1,1,18.1,88.436,5.947,5.947,0,0,1,15.671,80.384Z" fill="none" stroke="#60c" stroke-linecap="round" stroke-linejoin="round" stroke-width="4"/>
    <line id="Line_16" data-name="Line 16" x2="2.754" y2="2.754" transform="translate(74.916 75.219)" fill="none" stroke="#60c" stroke-linecap="round" stroke-linejoin="round" stroke-width="4"/>
    <path id="Path_2657" data-name="Path 2657" d="M80.384,88.329A5.888,5.888,0,1,1,88.436,85.9,5.947,5.947,0,0,1,80.384,88.329Z" fill="none" stroke="#60c" stroke-linecap="round" stroke-linejoin="round" stroke-width="4"/>
    <line id="Line_17" data-name="Line 17" x1="3.815" y1="3.815" transform="translate(26.33 26.027)" fill="none" stroke="#60c" stroke-linecap="round" stroke-linejoin="round" stroke-width="4"/>
    <path id="Path_2658" data-name="Path 2658" d="M23.616,15.671A5.888,5.888,0,1,1,15.564,18.1,5.947,5.947,0,0,1,23.616,15.671Z" fill="none" stroke="#60c" stroke-linecap="round" stroke-linejoin="round" stroke-width="4"/>
  </g>
</svg>
