<?xml version="1.0" encoding="UTF-8"?><svg id="Layer_2" xmlns="http://www.w3.org/2000/svg" viewBox="0 0 96.48 96.36"><defs><style>.cls-1{fill:none;}.cls-2{fill:#fff;}</style></defs><g id="Layer_3"><rect class="cls-1" width="96.46" height="96.36"/><g id="Group_2098"><path id="Path_2750" class="cls-2" d="M0,61.7c.58-1.07,1.53-1.9,2.67-2.33,5.16-2.51,10.29-5.06,15.42-7.63,1.16-.68,2.59-.68,3.74,0,1.37,.75,2.8,1.41,4.33,2.18l8.33-15.12c-1.35-.68-2.65-1.36-3.97-1.98-1.36-.53-2.21-1.89-2.1-3.34,.03-7.25,.03-14.5,0-21.75-.09-1.42,.73-2.73,2.04-3.28,5.34-2.64,10.67-5.3,15.98-7.99,1.11-.62,2.47-.61,3.57,.01,5.28,2.68,10.58,5.33,15.89,7.94,1.37,.57,2.21,1.96,2.1,3.44-.04,7.19-.04,14.37,0,21.56,.12,1.48-.74,2.87-2.13,3.42-1.31,.6-2.58,1.28-3.94,1.96l8.32,15.12c1.32-.66,2.64-1.22,3.86-1.95,1.43-.91,3.25-.92,4.68-.03,5.13,2.63,10.31,5.16,15.5,7.69,1.4,.57,2.28,1.99,2.15,3.5-.04,7.09-.04,14.18,0,21.28,.11,1.51-.76,2.92-2.17,3.48-5.67,2.75-11.31,5.55-16.96,8.33-.05,.02-.07,.09-.11,.14h-1.5s-.06-.12-.11-.14c-5.64-2.81-11.28-5.61-16.92-8.4-1.31-.55-2.12-1.88-2.01-3.3,.04-3.23,.01-6.46,.01-9.69v-1h-16.95c0,3.67,0,7.28,0,10.88,.08,1.29-.65,2.5-1.84,3.01-1.38,.67-2.75,1.37-4.12,2.06-4.36,2.19-8.71,4.38-13.07,6.58h-1.5s-.06-.12-.1-.14c-5.48-2.7-10.95-5.41-16.44-8.07-1.14-.44-2.08-1.26-2.67-2.33v-24.11Zm65.21-5.26l-8.33-15.12c-2.29,1.14-4.5,2.18-6.65,3.35-1.23,.75-2.77,.75-4,0-2.17-1.17-4.4-2.22-6.67-3.35l-8.32,15.13c2.21,1.11,4.3,2.19,6.42,3.2,1.39,.55,2.25,1.95,2.1,3.43-.06,1.65-.01,3.3-.01,4.96h16.96v-3.26q0-4.07,3.69-5.92c1.59-.79,3.18-1.59,4.83-2.42M17.07,88.94c.03-.13,.05-.27,.07-.41,0-5.08,0-10.16,.02-15.24,0-.57-.28-.75-.69-.95-2.84-1.4-5.67-2.8-8.51-4.2-.72-.36-1.45-.7-2.31-1.12v13.27c0,1-.3,2.21,.16,2.94s1.68,.98,2.58,1.43c2.86,1.42,5.72,2.82,8.68,4.28m62.23,0c.37-.16,.6-.25,.82-.36,3.31-1.64,6.62-3.29,9.94-4.9,.5-.18,.81-.68,.75-1.21-.03-4.23-.02-8.47-.02-12.7v-2.65c-.12,0-.23,.01-.35,.04-3.57,1.76-7.14,3.51-10.69,5.3-.24,.16-.4,.41-.43,.7-.02,5.2-.02,10.41-.02,15.76M34.15,15.88c-.02,.23-.05,.38-.05,.53,0,5.08,0,10.17-.02,15.25,0,.57,.28,.75,.69,.95,3.28,1.63,6.56,3.27,9.84,4.91,.21,.11,.44,.19,.74,.31,.02-.23,.05-.38,.05-.53,0-5.08,0-10.17,.02-15.25,0-.57-.28-.75-.69-.95-3.28-1.63-6.56-3.27-9.84-4.91-.21-.11-.44-.18-.74-.31m16.94,21.92c.14-.03,.27-.07,.41-.12,3.45-1.72,6.9-3.43,10.33-5.19,.3-.22,.48-.56,.5-.93,.03-4.96,.02-9.91,.02-14.87,0-.24-.02-.48-.04-.78-.14,.03-.27,.07-.41,.12-3.45,1.72-6.9,3.43-10.33,5.19-.3,.22-.48,.56-.5,.93-.03,4.96-.02,9.91-.02,14.87,0,.24,.02,.48,.04,.78m-16.99,29.3c-.27,.1-.38,.13-.49,.18-3.42,1.71-6.83,3.43-10.27,5.11-.51,.25-.55,.58-.55,1.04,0,4.89,.01,9.79,0,14.68,0,.23,.04,.46,.06,.69,.09,0,.18,0,.26-.02,3.51-1.75,7.01-3.48,10.5-5.27,.27-.21,.44-.53,.46-.87,.04-1.82,.02-3.64,.02-5.46v-10.1m39.46,21.75c.04-.1,.07-.21,.08-.32,0-5.11,.01-10.23-.02-15.34-.07-.34-.28-.63-.58-.79-3.35-1.71-6.72-3.38-10.08-5.06-.16-.08-.33-.13-.52-.21-.04,.1-.07,.21-.09,.32,0,5.11-.01,10.23,.02,15.34,.07,.34,.28,.63,.58,.79,3.35,1.71,6.72,3.38,10.08,5.06,.16,.08,.33,.13,.52,.21M9.2,62.46c3.62,1.79,7.01,3.47,10.42,5.12,.32,.08,.65,.04,.94-.12,3.09-1.52,6.17-3.07,9.25-4.62,.23-.14,.46-.28,.68-.44-3.49-1.74-6.84-3.43-10.22-5.08-.32-.08-.65-.03-.94,.13-1.47,.7-2.93,1.44-4.39,2.16l-5.75,2.84m78.03,0c-3.6-1.78-6.96-3.45-10.35-5.08-.34-.1-.71-.07-1.02,.1-3.1,1.52-6.18,3.07-9.26,4.62-.23,.13-.44,.28-.65,.44,3.46,1.73,6.79,3.41,10.14,5.04,.34,.1,.71,.06,1.02-.11,2.29-1.1,4.56-2.24,6.83-3.36,1.03-.51,2.06-1.02,3.28-1.63M58.77,11.27c-.14-.1-.28-.2-.42-.29-3.22-1.61-6.43-3.24-9.67-4.81-.36-.12-.76-.08-1.1,.09-2.96,1.45-5.89,2.92-8.83,4.39-.32,.16-.64,.34-.96,.52,.08,.12,.1,.2,.15,.22,3.3,1.66,6.6,3.32,9.91,4.95,.25,.1,.52,.1,.77,0,3.34-1.65,6.67-3.31,10.15-5.05"/></g></g></svg>