<?xml version="1.0" encoding="UTF-8"?><svg id="Layer_2" xmlns="http://www.w3.org/2000/svg" viewBox="0 0 89.69 88.47"><defs><style>.cls-1{fill:#fff;}</style></defs><g id="Layer_3"><g id="Group_1990" transform="translate(0 0)"><path id="Path_2708" class="cls-1" d="M3.45,57.1H0v16.4c0,2.42,1.29,4.65,3.38,5.86l14.21,8.2c2.09,1.21,4.67,1.21,6.77,0h0l14.21-8.2c2.1-1.21,3.39-3.44,3.39-5.86v-16.4c0-2.42-1.29-4.65-3.39-5.86l-14.2-8.2c-2.09-1.21-4.68-1.21-6.77,0h0L3.39,51.24C1.29,52.45,0,54.68,0,57.1H6.77l.07,.11,.06-.11h-.13l.07,.11,14.2-8.2h0l-.07-.11v.14l.07-.02-.07-.11v0l-.07,.11,.07,.02v-.13l-.07,.11,14.21,8.2,.06-.11h-.13l.07,.11,.06-.11h-.13v16.4h.13l-.06-.11-.07,.11h.13l-.06-.11-14.21,8.2h0l.06,.11v-.12l-.06,.02,.06,.11h0l.07-.11-.07-.02v.13l.07-.12-14.2-8.2-.06,.12h.13l-.07-.11-.07,.11h.13v-16.4H3.45Z"/><path id="Path_2709" class="cls-1" d="M27.72,14.97h-3.45V31.37c0,2.42,1.29,4.65,3.38,5.87l14.21,8.2c2.09,1.21,4.67,1.21,6.77,0h0l14.21-8.2c2.09-1.21,3.39-3.44,3.39-5.86V14.97c0-2.42-1.29-4.65-3.39-5.86L48.63,.91c-2.1-1.21-4.68-1.21-6.78,0h0l-14.2,8.2c-2.09,1.21-3.38,3.45-3.38,5.86h6.77l.07,.11,.07-.11h-.13l.07,.11,14.2-8.2h0l-.06-.12v.13l.06-.02-.06-.12h0l-.07,.11,.07,.02v-.12l-.07,.11,14.2,8.2,.07-.11h-.13l.07,.11,.07-.11h-.13V31.37h.13l-.07-.11-.07,.11h.13l-.07-.11-14.2,8.2h0l.07,.11v-.12l-.07,.02,.07,.11h0l.06-.11-.06-.02v.13l.06-.12-14.2-8.2-.07,.11h.13l-.07-.11-.07,.11h.13V14.97h-3.45Z"/><path id="Path_2710" class="cls-1" d="M51.19,57.1h-3.45v16.4c0,2.42,1.29,4.65,3.38,5.86l14.21,8.2c2.09,1.21,4.67,1.21,6.77,0h0l14.21-8.2c2.1-1.21,3.39-3.44,3.39-5.86v-16.4c0-2.42-1.29-4.65-3.39-5.86l-14.2-8.2c-2.09-1.21-4.68-1.21-6.77,0h0l-14.21,8.2c-2.09,1.21-3.39,3.44-3.39,5.86h6.77l.07,.11,.07-.11h-.13l.07,.11,14.2-8.2h0l-.07-.11v.14l.07-.02-.07-.11h0l-.07,.11,.07,.02v-.13l-.07,.11,14.21,8.2,.07-.11h-.13l.07,.11,.07-.11h-.13v16.4h.13l-.06-.11-.07,.11h.13l-.06-.11-14.21,8.2h0l.06,.11v-.13l-.06,.02,.06,.11h0l.06-.11-.06-.02v.13l.06-.12-14.2-8.2-.07,.11h.13l-.07-.11-.07,.11h.13v-16.4h-3.45Z"/></g></g></svg>