<?xml version="1.0" encoding="UTF-8"?><svg id="Layer_2" xmlns="http://www.w3.org/2000/svg" viewBox="0 0 72.34 90.42"><defs><style>.cls-1{fill:#fff;}</style></defs><g id="Layer_3"><g id="Group_1986" transform="translate(0 0)"><path id="Path_2706" class="cls-1" d="M18.08,65.56c-2.5,0-4.52,2.02-4.52,4.52s2.02,4.52,4.52,4.52,4.52-2.02,4.52-4.52c0-2.5-2.02-4.52-4.52-4.52M36.17,0C18.08,0,0,6.19,0,18.08v54.25c0,11.89,18.08,18.08,36.17,18.08s36.17-6.19,36.17-18.08V18.08C72.34,6.19,54.25,0,36.17,0m27.12,72.34c0,3.21-10.31,9.04-27.12,9.04s-27.13-5.83-27.13-9.04v-14.78c8.46,4.03,17.76,5.99,27.13,5.75,9.37,.25,18.66-1.72,27.12-5.74v14.78Zm0-27.13c0,3.21-10.31,9.04-27.12,9.04s-27.13-5.83-27.13-9.04v-14.79c8.46,4.02,17.76,5.99,27.13,5.74,9.37,.25,18.66-1.72,27.12-5.74v14.78Zm-27.12-18.08c-16.82,0-27.13-5.83-27.13-9.04s10.31-9.04,27.13-9.04,27.12,5.83,27.12,9.04-10.31,9.04-27.12,9.04m-18.08,11.3c-2.5,0-4.52,2.02-4.52,4.52s2.02,4.52,4.52,4.52,4.52-2.02,4.52-4.52-2.02-4.52-4.52-4.52h0"/></g></g></svg>