<?xml version="1.0" encoding="UTF-8"?><svg id="Layer_2" xmlns="http://www.w3.org/2000/svg" viewBox="0 0 95.69 91.4"><defs><style>.cls-1{fill:none;}.cls-2{fill:#fff;}</style></defs><g id="Layer_3"><rect class="cls-1" width="95.69" height="91.4"/><g id="Group_2096" transform="translate(0 0)"><path id="Path_2749" class="cls-2" d="M78.55,20.26C71.25,3.29,51.56-4.55,34.59,2.76c-10.91,4.7-18.51,14.82-19.97,26.6C4.28,31.94-2,42.42,.59,52.75c1.56,6.25,6.15,11.31,12.21,13.48,.5,.15,1.01,.23,1.53,.24,2.66,.42,5.16-1.39,5.58-4.05,.42-2.66-1.39-5.16-4.05-5.58h0c-4.93-1.74-7.52-7.14-5.78-12.07,1.35-3.82,4.98-6.37,9.04-6.32,2.65,0,4.79-2.16,4.78-4.81-.06-13.2,10.6-23.96,23.8-24.02,10.3-.05,19.47,6.51,22.76,16.27,.55,1.68,1.99,2.92,3.74,3.23,7.85,1.47,13.03,9.03,11.55,16.89-.76,4.06-3.22,7.6-6.77,9.73-2.3,1.34-3.09,4.28-1.77,6.6,1.31,2.3,4.23,3.1,6.53,1.8l.03-.02c11.48-6.72,15.34-21.48,8.61-32.96-3.07-5.24-8.01-9.13-13.83-10.89m-16.37,43.32v-5.87c0-7.93-6.43-14.36-14.36-14.36s-14.36,6.43-14.36,14.36h0v5.68c-7.49,2.76-11.32,11.07-8.56,18.56,2.07,5.61,7.37,9.37,13.35,9.45h19.14c7.98-.12,14.36-6.68,14.24-14.66-.09-5.98-3.85-11.29-9.46-13.35v.2Zm-19.14-5.87c-.04-2.64,2.07-4.82,4.72-4.85s4.82,2.07,4.85,4.72c0,.05,0,.09,0,.14v4.81h-9.57v-4.81Zm14.36,24.07h-19.14c-2.66-.04-4.78-2.22-4.74-4.88,.04-2.6,2.14-4.71,4.74-4.74h19.14c2.66,.04,4.78,2.22,4.74,4.88-.04,2.6-2.14,4.71-4.74,4.74"/></g></g></svg>