<?xml version="1.0" encoding="UTF-8"?><svg id="Layer_2" xmlns="http://www.w3.org/2000/svg" viewBox="0 0 105.81 104"><defs><style>.cls-1{fill:#fff;}</style></defs><g id="Layer_3"><g><path class="cls-1" d="M68.66,70.18h21.8v-2l-1.76,.95c.88,1.65,1.21,3.12,1.21,4.51,0,1.59-.45,3.08-1.18,4.48-1.09,2.09-2.81,3.92-4.27,5.18-.73,.63-1.39,1.12-1.85,1.45-.23,.16-.42,.29-.54,.37l-.14,.09-.03,.02h0c-.6,.36-.97,1.01-.97,1.71v13.05l-42.64-.29v-12.5c0-1.1-.9-2-2-2s-2,.9-2,2v14.49c0,1.1,.89,1.99,1.99,2l46.64,.32c.53,0,1.04-.2,1.42-.58,.38-.38,.59-.88,.59-1.42v-15.07h-2l1.03,1.71c.09-.06,2.46-1.48,4.9-4.02,1.22-1.27,2.46-2.83,3.42-4.66,.96-1.83,1.63-3.97,1.63-6.33,0-2.04-.51-4.22-1.69-6.4-.35-.65-1.03-1.05-1.76-1.05h-21.8c-1.1,0-2,.9-2,2s.9,2,2,2h0Z"/><path class="cls-1" d="M34.63,59.21v13.92c0,.99-.4,1.87-1.04,2.52-.65,.65-1.53,1.04-2.52,1.04h-15.06c-.64,0-1.19-.25-1.61-.67-.42-.42-.67-.98-.67-1.61v-10.41c0-.67-.33-1.29-.88-1.66,0,0-2.02-1.36-4.27-2.81-1.12-.72-2.3-1.47-3.32-2.08-.51-.31-.99-.58-1.41-.81-.43-.23-.77-.41-1.18-.56l-.68,1.88,1.75,.97,11.44-20.56c.16-.3,.25-.63,.25-.97v-5.03c0-7.84,3.17-14.92,8.31-20.06,5.14-5.14,12.22-8.31,20.06-8.31h7.04c1.12,0,2.11,.45,2.85,1.18,.73,.74,1.18,1.73,1.18,2.85v10.36c0,1.1,.9,2,2,2s2-.9,2-2V8.03c0-4.44-3.59-8.03-8.03-8.03h-7.04C25.94,0,11.44,14.49,11.44,32.38v4.51L.25,57c-.29,.51-.33,1.12-.13,1.67,.21,.55,.64,.98,1.19,1.18,.02,0,.3,.13,.64,.32,.6,.33,1.47,.85,2.41,1.43,1.41,.87,2.98,1.89,4.19,2.69,.61,.4,1.13,.74,1.49,.99,.37,.24,.58,.39,.58,.39l1.12-1.66h-2v10.41c0,3.47,2.81,6.28,6.28,6.28h15.06c4.17,0,7.56-3.38,7.56-7.56v-13.92c0-1.1-.9-2-2-2s-2,.9-2,2h0Z"/><path class="cls-1" d="M32.22,53.56h-2c0,3.49,2.83,6.32,6.32,6.32,3.49,0,6.32-2.83,6.32-6.32,0-3.49-2.83-6.32-6.32-6.32-3.49,0-6.32,2.83-6.32,6.32h4c0-.65,.26-1.21,.68-1.64,.43-.42,.99-.68,1.64-.68,.65,0,1.21,.26,1.64,.68,.42,.43,.68,.99,.68,1.64,0,.65-.26,1.21-.68,1.64-.43,.42-.99,.68-1.64,.68-.65,0-1.21-.26-1.64-.68-.42-.43-.68-.99-.68-1.64h-2Z"/><path class="cls-1" d="M58.24,67.77h-2c0,3.49,2.83,6.32,6.32,6.32,3.49,0,6.32-2.83,6.32-6.32,0-3.49-2.83-6.32-6.32-6.32-3.49,0-6.32,2.83-6.32,6.32h4c0-.65,.26-1.21,.68-1.64,.43-.42,.99-.68,1.64-.68,.65,0,1.21,.26,1.64,.68,.42,.43,.68,.99,.68,1.64,0,.65-.26,1.21-.68,1.64-.43,.42-.99,.68-1.64,.68-.65,0-1.21-.26-1.64-.68-.42-.43-.68-.99-.68-1.64h-2Z"/><path class="cls-1" d="M51.9,24h-2c0,3.49,2.83,6.32,6.32,6.32,3.49,0,6.32-2.83,6.32-6.32,0-3.49-2.83-6.32-6.32-6.32-3.49,0-6.32,2.83-6.32,6.32h4c0-.65,.26-1.21,.68-1.64,.43-.42,.99-.68,1.64-.68,.65,0,1.21,.26,1.64,.68,.42,.43,.68,.99,.68,1.64,0,.65-.26,1.21-.68,1.64-.43,.42-.99,.68-1.64,.68-.65,0-1.21-.26-1.64-.68-.42-.43-.68-.99-.68-1.64h-2Z"/><path class="cls-1" d="M53.21,41.29h6.24v-2l-1.95,.46c.13,.56,.29,1.12,.47,1.66l.02,.07,.08,.22,1.88-.69-1.9,.64c.15,.43,.31,.89,.5,1.35h0c.2,.47,.41,.92,.62,1.34l1.79-.89-1.82,.84,.08,.18,.03,.07c.26,.51,.54,1.01,.85,1.51l1.7-1.05-1.41-1.41-4.41,4.41c-.78,.78-.78,2.05,0,2.83l6.43,6.43c.37,.37,.89,.59,1.41,.59s1.04-.21,1.41-.59l4.41-4.41-1.41-1.41-1.05,1.7c.49,.3,1,.59,1.51,.85l.07,.03,.15,.07,.84-1.81-.89,1.79c.43,.22,.89,.43,1.37,.63h0c.47,.19,.93,.36,1.37,.51l.64-1.9-.69,1.88,.2,.07,.07,.03c.55,.18,1.1,.33,1.66,.47l.46-1.95h-2v6.24c0,1.1,.89,2,2,2h9.1c.53,0,1.04-.21,1.41-.59s.59-.88,.59-1.41v-6.24h-2l.46,1.95c.56-.13,1.12-.29,1.67-.47l.07-.03,.16-.06-.69-1.88,.63,1.9c.46-.15,.93-.32,1.41-.52,.48-.2,.93-.41,1.36-.63l-.89-1.79,.84,1.82,.16-.07,.07-.03c.51-.26,1.02-.54,1.51-.85l-1.05-1.7-1.41,1.41,4.41,4.41c.37,.37,.89,.59,1.41,.59,.53,0,1.04-.21,1.41-.59l6.43-6.43c.38-.38,.59-.88,.59-1.41s-.21-1.04-.59-1.41l-4.41-4.41-1.41,1.41,1.7,1.05c.3-.49,.58-1,.85-1.51l.03-.07,.09-.18-1.81-.84,1.79,.89c.21-.42,.42-.86,.61-1.34h0c.2-.48,.37-.95,.52-1.41l-1.9-.63,1.88,.69,.06-.17,.03-.08c.18-.55,.33-1.1,.47-1.66l-1.95-.46v2h6.24c.53,0,1.04-.21,1.41-.59,.38-.38,.59-.88,.59-1.41v-9.1c0-.53-.21-1.04-.59-1.41-.38-.38-.88-.59-1.41-.59h-6.24v2l1.95-.46c-.13-.56-.29-1.12-.47-1.66l-.03-.07-.07-.19-1.88,.69,1.9-.64c-.15-.45-.32-.91-.51-1.38-.2-.47-.41-.91-.61-1.33l-1.79,.89,1.82-.84-.09-.19-.03-.07c-.26-.51-.54-1.02-.85-1.51l-1.7,1.05,1.41,1.41,4.41-4.41c.38-.38,.59-.88,.59-1.41s-.21-1.04-.59-1.41l-6.43-6.43c-.37-.37-.89-.59-1.41-.59s-1.04,.21-1.41,.59l-4.41,4.41,1.41,1.41,1.05-1.7c-.49-.3-1-.58-1.51-.85l-.07-.03-.19-.09-.84,1.82,.89-1.79c-.42-.21-.86-.42-1.33-.61-.48-.2-.95-.37-1.41-.52l-.63,1.9,.69-1.88-.16-.06-.07-.03c-.55-.18-1.1-.33-1.67-.47l-.46,1.95h2v-6.24c0-.53-.21-1.04-.59-1.41-.38-.38-.88-.59-1.41-.59h-9.1c-.53,0-1.04,.21-1.41,.59s-.59,.89-.59,1.41v6.24h2l-.46-1.95c-.56,.13-1.12,.29-1.66,.47l-.07,.02-.17,.06,.69,1.88-.64-1.9c-.45,.15-.92,.32-1.4,.52-.48,.2-.93,.41-1.36,.63l.89,1.79-.84-1.81-.16,.07-.07,.03c-.51,.26-1.02,.54-1.51,.85-.94,.58-1.23,1.81-.65,2.75,.58,.94,1.81,1.23,2.75,.65,.39-.24,.8-.47,1.23-.69l-.91-1.78,.84,1.81,.16-.07,.05-.02c.38-.19,.75-.36,1.11-.51,.36-.15,.74-.29,1.14-.42l.05-.02,.17-.06-.69-1.88,.62,1.9c.45-.15,.9-.27,1.35-.38,.9-.21,1.54-1.02,1.54-1.95v-4.24h5.1v4.24c0,.92,.64,1.73,1.54,1.95,.45,.11,.9,.24,1.35,.38l.62-1.9-.69,1.88,.16,.06,.06,.02c.4,.13,.79,.27,1.15,.42,.35,.14,.71,.31,1.08,.5l.05,.02,.19,.09,.84-1.82-.91,1.78c.42,.21,.83,.44,1.23,.69,.79,.48,1.81,.36,2.46-.29l3-3,3.6,3.6-3,3c-.65,.65-.77,1.68-.29,2.46,.24,.4,.47,.81,.69,1.23l1.78-.91-1.82,.84,.09,.19,.02,.05c.19,.37,.36,.73,.5,1.08,.15,.35,.28,.73,.42,1.13l.02,.05,.07,.19,1.88-.69-1.9,.62c.15,.45,.27,.9,.38,1.35,.21,.9,1.02,1.54,1.95,1.54h4.24v5.1h-4.24c-.92,0-1.73,.64-1.95,1.54-.11,.45-.23,.9-.38,1.35l1.9,.62-1.88-.69-.06,.17-.02,.06c-.13,.4-.27,.78-.42,1.14h0c-.14,.35-.31,.71-.5,1.09l-.02,.05-.09,.18,1.81,.84-1.78-.91c-.21,.42-.44,.83-.69,1.23-.48,.79-.36,1.81,.29,2.46l3,3-3.6,3.6-3-3c-.65-.65-1.68-.77-2.46-.29-.4,.24-.81,.47-1.23,.69l.91,1.78-.84-1.82-.16,.07-.05,.03c-.38,.19-.75,.36-1.11,.51-.36,.15-.75,.29-1.15,.42l-.06,.02-.16,.06,.69,1.88-.62-1.9c-.45,.15-.9,.27-1.35,.38-.9,.21-1.54,1.02-1.54,1.95v4.24h-5.1v-4.24c0-.92-.64-1.73-1.54-1.95-.45-.11-.9-.24-1.35-.38l-.62,1.9,.69-1.88-.2-.07-.05-.02c-.4-.13-.77-.27-1.12-.41h0c-.36-.15-.73-.32-1.11-.51l-.05-.02-.15-.07-.84,1.81,.91-1.78c-.42-.22-.83-.44-1.23-.69-.79-.49-1.81-.37-2.46,.29l-3,3-3.6-3.6,3-3c.65-.65,.77-1.68,.29-2.46-.24-.4-.47-.81-.69-1.23l-1.78,.91,1.82-.84-.08-.18-.03-.05c-.19-.38-.36-.74-.5-1.09h0c-.14-.34-.27-.71-.41-1.1l-.02-.05-.08-.22-1.88,.69,1.9-.62c-.15-.45-.27-.9-.38-1.35-.21-.9-1.02-1.54-1.95-1.54h-6.24c-1.1,0-2,.9-2,2s.9,2,2,2h0Z"/><path class="cls-1" d="M90.87,34.74h-2c0,2.87-1.16,5.44-3.03,7.32-1.88,1.88-4.46,3.03-7.32,3.03-2.87,0-5.44-1.16-7.32-3.03-1.88-1.88-3.03-4.46-3.03-7.32,0-2.87,1.16-5.44,3.03-7.32,1.88-1.88,4.46-3.03,7.32-3.03,2.87,0,5.44,1.16,7.32,3.03,1.88,1.88,3.03,4.46,3.03,7.32h4c0-7.93-6.43-14.35-14.35-14.36-7.93,0-14.35,6.43-14.36,14.36,0,7.93,6.43,14.35,14.36,14.36,7.93,0,14.35-6.43,14.35-14.36h-2Z"/><path class="cls-1" d="M34.91,40.83v-2h-10.5v-2.81h8.5v4.81h2v0h2v-6.81c0-.53-.21-1.04-.59-1.41-.38-.38-.88-.59-1.41-.59h-12.5c-.53,0-1.04,.21-1.41,.59s-.59,.89-.59,1.41v6.81c0,.53,.21,1.04,.59,1.41,.37,.37,.89,.59,1.41,.59h12.5c.53,0,1.04-.21,1.41-.59,.38-.38,.59-.88,.59-1.41h-2Z"/><path class="cls-1" d="M47.44,39.88v-2h-1.52v2h2v-1.52h-2v2h1.52v-2h-2v1.52h2v0h2v-1.52c0-.53-.21-1.04-.59-1.41-.38-.38-.88-.59-1.41-.59h-1.52c-.53,0-1.04,.21-1.41,.59s-.59,.89-.59,1.41v1.52c0,.53,.21,1.04,.59,1.41,.37,.37,.89,.59,1.41,.59h1.52c.53,0,1.04-.21,1.41-.59,.38-.38,.59-.88,.59-1.41h-2Z"/><path class="cls-1" d="M47.44,48.16v-2h-1.52v2h2v-1.52h-2v2h1.52v-2h-2v1.52h2v0h2v-1.52c0-.53-.21-1.04-.59-1.41-.38-.38-.88-.59-1.41-.59h-1.52c-.53,0-1.04,.21-1.41,.59s-.59,.89-.59,1.41v1.52c0,.53,.21,1.04,.59,1.41,.37,.37,.89,.59,1.41,.59h1.52c.53,0,1.04-.21,1.41-.59,.38-.38,.59-.88,.59-1.41h-2Z"/></g></g></svg>