<?xml version="1.0" encoding="UTF-8"?><svg id="Layer_2" xmlns="http://www.w3.org/2000/svg" viewBox="0 0 104 104"><defs><style>.cls-1{fill:#fff;}</style></defs><g id="Layer_3"><g><path class="cls-1" d="M77,52h-2c0,6.36-2.57,12.09-6.74,16.26-4.17,4.17-9.91,6.74-16.26,6.74-6.36,0-12.1-2.57-16.26-6.74-4.17-4.17-6.74-9.91-6.74-16.26,0-6.36,2.57-12.09,6.74-16.26,4.17-4.17,9.91-6.74,16.26-6.74,6.36,0,12.09,2.57,16.26,6.74,4.17,4.17,6.74,9.91,6.74,16.26h4c0-14.91-12.09-27-27-27-14.91,0-27,12.09-27,27,0,14.91,12.09,27,27,27,14.91,0,27-12.09,27-27h-2Z"/><path class="cls-1" d="M59.08,45.04l-9.93,9.67-4.22-4.22c-.78-.78-2.05-.78-2.83,0-.78,.78-.78,2.05,0,2.83l5.61,5.61c.77,.77,2.03,.78,2.81,.02l11.35-11.05c.79-.77,.81-2.04,.04-2.83-.77-.79-2.04-.81-2.83-.04h0Z"/><path class="cls-1" d="M2,22H0c0,15.28,3.19,28.08,7.99,38.64,7.2,15.85,18,26.64,26.98,33.46,8.98,6.83,16.17,9.71,16.29,9.76,.47,.19,1.01,.19,1.49,0,.16-.07,12.88-5.16,25.67-17.94,6.39-6.39,12.79-14.71,17.59-25.27,4.8-10.56,7.99-23.36,7.99-38.64,0-.81-.5-1.55-1.26-1.86L52.74,.14c-.48-.19-1.01-.19-1.49,0L1.26,20.14C.5,20.45,0,21.18,0,22H2l.74,1.86L52,4.15l49.26,19.7,.74-1.86h-2c0,14.72-3.06,26.92-7.63,36.98-6.86,15.09-17.16,25.4-25.76,31.93-4.3,3.27-8.17,5.59-10.94,7.08-1.39,.75-2.51,1.29-3.27,1.64-.38,.18-.67,.3-.87,.39-.1,.04-.17,.07-.21,.09l-.05,.02h0l.74,1.86,.74-1.86h0c-.23-.09-12.5-5.11-24.61-17.34-6.06-6.12-12.09-14.03-16.6-24.05-4.51-10.02-7.52-22.14-7.53-36.75h-2l.74,1.86-.74-1.86Z"/></g></g></svg>