<?xml version="1.0" encoding="UTF-8"?><svg id="Layer_2" xmlns="http://www.w3.org/2000/svg" viewBox="0 0 104 104"><defs><style>.cls-1{fill:#fff;}</style></defs><g id="Layer_3"><g><path class="cls-1" d="M102,52h-2c0,13.26-5.37,25.25-14.06,33.94-8.69,8.69-20.68,14.06-33.94,14.06-13.26,0-25.25-5.37-33.94-14.06-8.69-8.69-14.06-20.68-14.06-33.94,0-13.26,5.37-25.25,14.06-33.94C26.75,9.37,38.74,4,52,4c13.26,0,25.25,5.37,33.94,14.06,8.69,8.69,14.06,20.68,14.06,33.94h4C104,23.28,80.72,0,52,0,23.28,0,0,23.28,0,52c0,28.72,23.28,52,52,52,28.72,0,52-23.28,52-52h-2Z"/><path class="cls-1" d="M94.18,52h-2c0,11.1-4.49,21.14-11.77,28.41-7.28,7.27-17.31,11.77-28.41,11.77-11.1,0-21.14-4.49-28.41-11.77-7.27-7.28-11.77-17.31-11.77-28.41,0-11.1,4.49-21.14,11.77-28.41,7.28-7.27,17.31-11.77,28.41-11.77,11.1,0,21.13,4.49,28.41,11.77,7.27,7.28,11.77,17.31,11.77,28.41h4c0-24.4-19.78-44.18-44.18-44.18-24.4,0-44.18,19.78-44.18,44.18,0,24.4,19.78,44.18,44.18,44.18,24.4,0,44.18-19.78,44.18-44.18h-2Z"/><path class="cls-1" d="M61.48,35.18l-1.41-1.41L24.25,69.58l1.41,1.41,1.56-1.25c-4.26-5.29-6.81-12-6.81-19.32,0-8.53,3.45-16.23,9.04-21.82,5.59-5.59,13.29-9.04,21.82-9.04v-2l-1.98-.32c-.02,.1-.03,.21-.03,.32,0,.16,.01,.72,.16,1.49,.23,1.15,.76,2.84,2.19,4.33,.71,.73,1.65,1.39,2.79,1.84,1.15,.45,2.49,.71,4.04,.7,.39,0,.8-.02,1.22-.05l-.15-1.99-1.88-.68s-.39,1.1-.78,2.6c-.38,1.51-.78,3.43-.78,5.35,0,.65,.05,1.3,.18,1.95,.2,.97,.58,1.98,1.41,2.81,.41,.41,.92,.75,1.49,.97,.57,.22,1.18,.32,1.81,.32,.24,0,.48-.01,.72-.04l-.21-1.99-1.41-1.41,1.41,1.41-.21-1.99c-.11,.01-.21,.02-.29,.02-.28,0-.38-.05-.42-.07l-.1-.09c-.06-.08-.17-.28-.25-.61-.08-.33-.12-.78-.12-1.28,0-1.33,.32-3.04,.66-4.36,.17-.66,.34-1.23,.47-1.63,.06-.2,.12-.36,.15-.46l.04-.12v-.03h.01c.23-.64,.12-1.36-.29-1.89-.41-.54-1.07-.83-1.74-.78-.33,.03-.63,.04-.91,.04-1.5,0-2.46-.31-3.13-.69-.5-.29-.86-.63-1.15-1.01-.42-.56-.67-1.22-.79-1.76-.06-.27-.09-.5-.11-.66v-.23h-1.96l1.92,.3c.02-.1,.02-.2,.02-.31h-1.94l1.92,.31c.09-.58-.07-1.17-.45-1.61-.38-.45-.94-.7-1.52-.7-19.25,0-34.85,15.6-34.85,34.85,0,8.26,2.89,15.86,7.69,21.83,.36,.45,.88,.71,1.45,.74,.57,.03,1.12-.18,1.52-.58L62.89,36.6c.6-.6,.75-1.52,.39-2.28s-1.18-1.22-2.02-1.12l.21,1.99Z"/><path class="cls-1" d="M67.84,42.13l-1.41-1.41L30.62,76.52c-.4,.4-.61,.94-.58,1.5,.02,.56,.28,1.08,.71,1.45,6.04,5.06,13.85,8.11,22.34,8.11,19.25,0,34.85-15.6,34.85-34.85,0-1.99-.17-3.94-.49-5.84-.14-.82-.76-1.46-1.57-1.63h-.01c-.19-.04-2.32-.52-4.38-1.41-1.03-.44-2.03-.99-2.74-1.56-.35-.28-.63-.57-.81-.82-.19-.26-.28-.47-.32-.66-.14-.65-.6-1.18-1.21-1.42-.61-.25-1.31-.17-1.86,.2l.44,.65-.42-.66h-.01l.44,.66-.42-.66s-.42,.27-1.1,.51c-.68,.25-1.61,.48-2.72,.48-.71,0-1.49-.1-2.34-.35-.7-.21-1.47-.02-1.99,.5l1.41,1.41-.57,1.92c1.24,.37,2.42,.52,3.49,.52,1.78,0,3.25-.4,4.29-.79,1.04-.4,1.65-.8,1.75-.87l-1.12-1.66-1.95,.43c.19,.84,.57,1.58,1.03,2.2,.82,1.1,1.89,1.9,2.99,2.55,1.66,.98,3.46,1.64,4.87,2.08,1.41,.44,2.42,.65,2.47,.66l.4-1.96-1.97,.33c.28,1.68,.43,3.41,.43,5.18,0,8.53-3.45,16.23-9.04,21.81-5.59,5.59-13.29,9.03-21.81,9.04-7.53,0-14.42-2.7-19.78-7.18l-1.28,1.53,1.41,1.41,35.8-35.8-1.41-1.41-.57,1.92,.57-1.92Z"/><path class="cls-1" d="M45.96,36.3l-1.77-.93c-.54,1.03-1.58,1.61-2.62,1.61-.44,0-.87-.1-1.29-.32-.48-.25-.85-.62-1.11-1.06-.26-.44-.4-.96-.4-1.48,0-.47,.11-.95,.35-1.4h0c.54-1.04,1.58-1.61,2.61-1.61,.44,0,.87,.1,1.29,.32,.48,.25,.85,.62,1.11,1.06,.26,.44,.4,.96,.4,1.48,0,.47-.11,.95-.35,1.41h0l1.77,.92,1.77,.92c.54-1.03,.8-2.16,.8-3.25,0-1.23-.33-2.44-.95-3.5-.62-1.06-1.54-1.97-2.7-2.58-1-.52-2.08-.77-3.14-.77-2.5,0-4.91,1.38-6.16,3.75h0c-.55,1.04-.81,2.16-.81,3.26,0,1.24,.33,2.44,.95,3.5,.62,1.06,1.54,1.97,2.7,2.58,1,.52,2.08,.77,3.14,.77,2.5,0,4.91-1.38,6.16-3.75h0l-1.77-.93Z"/><path class="cls-1" d="M69.35,69.48l-1.77-.93c-.54,1.03-1.58,1.61-2.62,1.61-.44,0-.87-.1-1.28-.32-.48-.25-.85-.62-1.11-1.06-.26-.44-.4-.96-.4-1.48,0-.47,.11-.95,.35-1.4h0c.54-1.04,1.58-1.61,2.61-1.61,.44,0,.87,.1,1.29,.32,.48,.25,.85,.62,1.11,1.06,.26,.44,.4,.96,.4,1.48,0,.47-.11,.95-.35,1.4l1.77,.93,1.77,.93c.54-1.04,.8-2.16,.8-3.26,0-1.24-.33-2.44-.95-3.5-.62-1.06-1.54-1.97-2.7-2.58-1-.52-2.08-.77-3.14-.77-2.5,0-4.91,1.38-6.16,3.75h0c-.55,1.04-.81,2.16-.81,3.26,0,1.24,.33,2.44,.95,3.5,.62,1.06,1.54,1.97,2.7,2.58,1,.52,2.08,.77,3.14,.77,2.5,0,4.91-1.38,6.16-3.75l-1.77-.93Z"/><path class="cls-1" d="M32.08,51.71l-1.77-.93,.56,.29v-.63c-.24,0-.46,.13-.56,.33l.56,.29v.06l.32-.61c-.1-.05-.21-.08-.32-.08v.69l.32-.61-.32,.6,.59-.34c-.06-.1-.16-.2-.27-.26l-.32,.6,.59-.34-.55,.32h.64c0-.11-.03-.22-.09-.32l-.55,.32h.01l.56,.3c.05-.09,.07-.2,.07-.3h-.63l.56,.3h0l-.56-.31v.63c.25,0,.46-.13,.56-.33l-.56-.3v-.06l-.32,.61c.1,.05,.21,.08,.32,.08v-.69l-.32,.61,.32-.61-.59,.35c.06,.1,.16,.2,.27,.26l.32-.61-.59,.35,.55-.32h-.64c0,.11,.03,.22,.09,.32l.55-.32h-.04l-.54-.28c-.04,.08-.07,.18-.07,.28h.6l-.54-.28h0l1.77,.92,1.78,.92c.25-.49,.38-1.03,.38-1.56,0-.6-.16-1.18-.46-1.7-.3-.52-.76-.97-1.32-1.26-.49-.26-1.02-.38-1.54-.38-1.22,0-2.38,.67-2.98,1.81h0c-.27,.49-.39,1.04-.39,1.57,0,.6,.16,1.18,.46,1.7,.3,.52,.76,.97,1.32,1.26,.49,.26,1.02,.38,1.54,.38,1.22,0,2.38-.67,2.98-1.81h0l-1.78-.93Z"/><path class="cls-1" d="M51.23,74.62l-1.77-.93,.56,.29v-.63c-.25,0-.46,.13-.56,.33l.56,.29v.06l.32-.61c-.1-.05-.21-.08-.32-.08v.69l.32-.61-.32,.61,.59-.35c-.06-.1-.16-.2-.27-.26l-.32,.61,.59-.35-.55,.32h.64c0-.11-.03-.22-.09-.32l-.55,.32h0l.56,.3c.05-.1,.08-.2,.07-.3h-.63l.56,.3h0l-.56-.31v.63c.25,0,.46-.13,.56-.33l-.56-.3v-.06l-.32,.61c.1,.05,.22,.08,.32,.08v-.69l-.32,.61,.32-.61-.59,.35c.06,.1,.16,.2,.27,.26l.32-.61-.59,.35,.55-.32h-.64c0,.11,.03,.22,.09,.32l.55-.32h-.04l-.53-.27c-.04,.08-.06,.17-.06,.27h.6l-.53-.27h0l1.77,.92,1.78,.92c.25-.49,.38-1.03,.38-1.56,0-.6-.16-1.18-.46-1.7-.3-.52-.76-.97-1.32-1.26-.49-.26-1.02-.38-1.54-.38-1.22,0-2.38,.67-2.98,1.81h0c-.27,.49-.39,1.04-.39,1.57,0,.6,.16,1.18,.46,1.7,.3,.52,.76,.97,1.32,1.26,.49,.25,1.02,.38,1.54,.38,1.22,0,2.38-.67,2.98-1.81h0l-1.78-.93Z"/><path class="cls-1" d="M72.12,53.73l-1.77-.93,.56,.29v-.63c-.25,0-.46,.13-.56,.33l.56,.29v.06l.32-.61c-.1-.05-.21-.08-.32-.08v.69l.32-.61-.32,.61,.59-.35c-.06-.1-.16-.2-.27-.26l-.32,.61,.59-.35-.55,.32h.64c0-.11-.03-.22-.09-.32l-.55,.32h0l.56,.3c.05-.09,.08-.2,.07-.3h-.63l.56,.3h0l-.56-.31v.63c.25,0,.46-.13,.56-.33l-.56-.3v-.06l-.32,.61c.1,.05,.22,.08,.32,.08v-.69l-.32,.61h0l.32-.61-.59,.35c.06,.1,.16,.2,.27,.26l.32-.61-.59,.35,.55-.32h-.64c0,.11,.03,.22,.09,.32l.55-.32h-.04l-.53-.28c-.04,.08-.07,.18-.06,.28h.6l-.53-.28h0l1.77,.92,1.78,.92c.25-.49,.38-1.03,.38-1.56,0-.6-.16-1.18-.46-1.7-.3-.52-.76-.97-1.32-1.26h0c-.49-.26-1.02-.38-1.54-.38-1.22,0-2.38,.67-2.98,1.81h0c-.27,.49-.39,1.04-.39,1.57,0,.6,.16,1.18,.46,1.7,.3,.52,.76,.97,1.32,1.26,.49,.26,1.02,.38,1.54,.38,1.22,0,2.38-.67,2.98-1.81h0l-1.78-.93Z"/><path class="cls-1" d="M26.78,85.69L85.65,26.4c.78-.78,.77-2.05,0-2.83-.78-.78-2.05-.77-2.83,0L23.94,82.87c-.78,.78-.77,2.05,0,2.83,.78,.78,2.05,.77,2.83,0"/><path class="cls-1" d="M22.31,78.83L79.36,21.23c.78-.78,.77-2.05-.01-2.83-.79-.78-2.05-.77-2.83,.01L19.47,76.02c-.78,.78-.77,2.05,.01,2.83,.79,.78,2.05,.77,2.83-.01"/></g></g></svg>