<?xml version="1.0" encoding="UTF-8"?><svg id="Layer_2" xmlns="http://www.w3.org/2000/svg" viewBox="0 0 1157.13 104.86"><defs><style>.cls-1{fill:gray;}</style></defs><g id="Layer_6"><g><polygon class="cls-1" points="0 8.06 46.12 8.06 46.12 1.77 20.62 1.77 20.62 101.36 26.91 101.36 26.91 8.06 46.12 8.06 46.12 1.77 0 1.77 0 8.06 0 8.06"/><polygon class="cls-1" points="58.01 1.77 58.01 101.01 64.29 101.01 64.29 52.44 106.23 52.44 106.23 3.17 99.94 3.17 99.94 101.01 106.23 101.01 106.23 3.17 99.94 3.17 99.94 46.15 58.01 46.15 58.01 101.01 64.29 101.01 64.29 1.77 58.01 1.77 58.01 1.77"/><polygon class="cls-1" points="158.29 1.42 124.4 1.42 124.4 53.14 153.4 53.14 153.4 46.85 124.4 46.85 124.4 102.06 158.29 102.06 158.29 95.77 130.69 95.77 130.69 53.14 153.4 53.14 153.4 46.85 130.69 46.85 130.69 7.71 158.29 7.71 158.29 1.42 158.29 1.42"/><path class="cls-1" d="M239.71,33.92v-13.51l-.03-.23c-.83-5.57-3.56-10.47-7.43-14.04-3.87-3.57-8.92-5.83-14.39-6.11C217.47,.01,217.09,0,216.7,0c-5.67,0-11,2.14-15.12,5.72-4.13,3.58-7.08,8.62-7.96,14.45l-.04,.23v61.21c.36,6.43,3.24,12.1,7.51,16.14,4.27,4.04,9.97,6.5,16.05,6.5,.75,0,1.51-.04,2.27-.11,5.9-.6,11.16-3.5,14.93-7.75,3.77-4.24,6.09-9.88,6.09-15.99,0-.4,0-.8-.03-1.21l-3.14,.15h3.14v-10.48h-6.29c0,3.49,0,6.99,0,10.48v.15c.02,.3,.03,.61,.03,.9,0,4.51-1.71,8.67-4.5,11.82-2.8,3.15-6.63,5.24-10.87,5.67-.55,.06-1.09,.08-1.63,.08-4.35,0-8.55-1.78-11.72-4.78-3.17-3-5.28-7.16-5.55-11.92l-3.14,.18h3.14V20.64h-3.14l3.11,.47c.65-4.3,2.82-8,5.86-10.64,3.05-2.64,6.94-4.18,11-4.18,.27,0,.55,0,.83,.02,3.93,.2,7.6,1.83,10.45,4.46,2.85,2.63,4.86,6.23,5.47,10.34l3.11-.46h-3.14v13.28h6.29Z"/><path class="cls-1" d="M257.53,20.64h-3.14v61.71l.03,.21c.87,6.33,3.99,11.76,8.32,15.59,4.33,3.83,9.89,6.11,15.71,6.12,.83,0,1.67-.05,2.5-.14,5.37-.62,10.26-3.18,13.97-6.99,3.71-3.81,6.27-8.9,6.97-14.62l.02-.19V19.54l-.1-.39c-1.41-5.45-4.58-10.07-8.76-13.31-4.17-3.25-9.37-5.14-14.86-5.14-.42,0-.84,.01-1.26,.03h0c-5.42,.29-10.44,2.41-14.4,5.8-3.96,3.38-6.87,8.05-8.07,13.43l-.07,.34v.35h3.14l3.07,.68c.89-4.02,3.06-7.49,6.02-10.02,2.95-2.53,6.67-4.09,10.65-4.3h0c.3-.02,.61-.02,.92-.02,4.03,0,7.88,1.39,11,3.82,3.12,2.43,5.48,5.86,6.53,9.93l3.04-.79h-3.14v62.2h3.14l-3.12-.38c-.53,4.33-2.46,8.15-5.23,11-2.77,2.85-6.35,4.7-10.17,5.13-.6,.07-1.19,.1-1.79,.1-4.16,0-8.29-1.65-11.54-4.53-3.25-2.88-5.6-6.95-6.25-11.74l-3.12,.43h3.14V20.64h-3.14l3.07,.68-3.07-.68Z"/><polygon class="cls-1" points="324.27 101.01 324.27 18.05 358.04 102.18 364.1 101.01 364.1 2.47 357.81 2.47 357.81 84.73 324.04 .6 317.98 1.77 317.98 101.01 324.27 101.01 324.27 101.01"/><path class="cls-1" d="M422.77,27.41c.18-1.2,.27-2.39,.27-3.58,0-5.11-1.67-9.96-4.56-13.89-2.89-3.93-7.01-6.96-11.92-8.4-2.07-.6-4.19-.9-6.28-.9-4.14,0-8.19,1.13-11.74,3.22-3.55,2.09-6.59,5.14-8.69,8.97l-.22,.5c-.8,2.36-1.78,6.07-1.78,10.62,0,1.94,.18,4.03,.63,6.23,.84,4.07,2.44,7.59,4.37,10.55,2.9,4.44,6.52,7.63,9.58,9.82,1.53,1.09,2.93,1.93,4.04,2.54,1.11,.61,1.94,1,2.32,1.16l1.29-2.87-1.32,2.85c.52,.24,1.45,.69,2.65,1.41,1.79,1.07,4.15,2.73,6.44,5.09,2.29,2.36,4.51,5.41,6.1,9.31,1.64,4.04,2.14,7.87,2.14,11.05,0,3.34-.55,5.94-.88,7.28l3.05,.75-3.01-.91c-.08,.27-.24,.77-.52,1.43-.41,.99-1.1,2.32-2.12,3.63-1.03,1.31-2.39,2.58-4.22,3.56-2.29,1.22-4.54,1.56-6.41,1.56-.9,0-1.7-.08-2.34-.18-.65-.1-1.13-.21-1.46-.29-1.76-.41-3.46-1.19-5.08-2.31-2.41-1.68-4.62-4.17-6.39-7.27-1.77-3.11-3.1-6.83-3.79-10.93l-6.2,1.05c1.08,6.37,3.47,12.08,6.89,16.58,1.71,2.25,3.68,4.19,5.89,5.73,2.2,1.54,4.64,2.67,7.25,3.28,.36,.08,1.06,.25,1.95,.38,.9,.14,2.01,.25,3.28,.25,2.63,0,5.98-.49,9.37-2.31,1.8-.96,3.31-2.13,4.54-3.36,1.85-1.84,3.1-3.79,3.93-5.42,.42-.82,.73-1.56,.97-2.17,.23-.61,.39-1.1,.48-1.39l.04-.15c.4-1.63,1.06-4.77,1.06-8.79,0-3.83-.6-8.49-2.6-13.42-2.58-6.34-6.55-10.85-10.17-13.89-1.81-1.52-3.53-2.68-4.97-3.54-1.43-.86-2.59-1.42-3.23-1.71l-.04-.02c-.36-.16-1.42-.65-2.87-1.52-2.18-1.29-5.19-3.42-7.85-6.42-2.67-3-5-6.83-6-11.67-.36-1.74-.5-3.4-.5-4.95,0-3.63,.8-6.67,1.45-8.6l-2.98-1.01,2.76,1.51c1.53-2.81,3.76-5.03,6.36-6.56,2.6-1.53,5.56-2.35,8.55-2.35,1.51,0,3.03,.21,4.52,.64,3.52,1.03,6.5,3.21,8.61,6.08,2.11,2.88,3.34,6.43,3.34,10.16,0,.87-.07,1.74-.2,2.62l6.22,.96h0Z"/><path class="cls-1" d="M480.81,33.92v-13.51l-.03-.23c-.83-5.57-3.56-10.47-7.43-14.04-3.87-3.57-8.92-5.83-14.39-6.11-.38-.02-.77-.03-1.15-.03-5.67,0-11,2.14-15.12,5.72-4.13,3.58-7.08,8.62-7.96,14.45l-.04,.23v61.21c.36,6.43,3.24,12.1,7.51,16.14,4.27,4.04,9.97,6.5,16.05,6.5,.75,0,1.51-.04,2.27-.11,5.9-.6,11.16-3.5,14.93-7.75,3.77-4.24,6.09-9.88,6.09-15.99,0-.4,0-.8-.03-1.21l-3.14,.15h3.14v-10.48h-6.29c0,3.49,0,6.99,0,10.48v.15c.02,.3,.03,.61,.03,.9,0,4.51-1.71,8.67-4.5,11.82-2.8,3.15-6.63,5.24-10.87,5.67-.55,.06-1.09,.08-1.63,.08-4.35,0-8.55-1.78-11.72-4.78-3.17-3-5.28-7.16-5.55-11.92l-3.14,.18h3.14V20.64h-3.14l3.11,.47c.65-4.3,2.82-8,5.86-10.64,3.05-2.64,6.94-4.18,11-4.18,.27,0,.55,0,.83,.02,3.93,.2,7.6,1.83,10.45,4.46,2.85,2.63,4.86,6.23,5.47,10.34l3.11-.46h-3.14v13.28h6.29Z"/><polyline class="cls-1" points="496.19 1.77 496.19 101.71 502.48 101.71 502.48 1.77"/><path class="cls-1" d="M523.79,20.64h-3.14v61.71l.03,.21c.87,6.33,3.99,11.76,8.32,15.59,4.33,3.83,9.89,6.11,15.71,6.12,.83,0,1.67-.05,2.5-.14,5.37-.62,10.26-3.18,13.97-6.99,3.71-3.81,6.27-8.9,6.97-14.62l.02-.19V19.54l-.1-.39c-1.41-5.45-4.58-10.07-8.76-13.31-4.17-3.25-9.37-5.14-14.86-5.14-.42,0-.84,.01-1.26,.03h0c-5.42,.29-10.44,2.41-14.4,5.8-3.96,3.38-6.87,8.05-8.07,13.43l-.07,.34v.35h3.14l3.07,.68c.89-4.02,3.06-7.49,6.02-10.02,2.95-2.53,6.67-4.09,10.65-4.3h0c.3-.02,.61-.02,.92-.02,4.03,0,7.88,1.39,11,3.82,3.12,2.43,5.48,5.86,6.53,9.93l3.04-.79h-3.14v62.2h3.14l-3.12-.38c-.53,4.33-2.46,8.15-5.23,11-2.77,2.85-6.35,4.7-10.17,5.13-.6,.07-1.19,.1-1.79,.1-4.16,0-8.29-1.65-11.54-4.53-3.25-2.88-5.6-6.95-6.25-11.74l-3.12,.43h3.14V20.64h-3.14l3.07,.68-3.07-.68Z"/><path class="cls-1" d="M583.55,1.77V86.83l.15,.47c1.65,5.08,4.8,9.39,8.86,12.46,4.05,3.07,9.02,4.92,14.3,5.09h0c.24,0,.48,.01,.71,.01,5.52,0,10.96-1.96,15.49-5.17,2.27-1.61,4.31-3.54,6.01-5.74,1.7-2.2,3.06-4.67,3.94-7.35l.15-.48V1.77h-6.29c0,27.95,0,55.91,0,83.86h3.14l-2.99-.97c-.63,1.92-1.63,3.77-2.93,5.45-1.95,2.52-4.57,4.67-7.47,6.15-2.9,1.49-6.06,2.32-9.06,2.31-.17,0-.35,0-.52,0h0c-3.93-.12-7.65-1.5-10.7-3.82-3.05-2.31-5.43-5.55-6.67-9.39l-2.99,.97h3.14V1.77h-6.29Z"/><path class="cls-1" d="M692.53,27.41c.18-1.2,.27-2.39,.27-3.58,0-5.11-1.67-9.96-4.56-13.89-2.89-3.93-7.01-6.96-11.92-8.4-2.07-.6-4.19-.9-6.28-.9-4.14,0-8.19,1.13-11.74,3.22-3.55,2.09-6.59,5.14-8.69,8.97l-.22,.5c-.8,2.36-1.78,6.07-1.78,10.62,0,1.94,.18,4.03,.63,6.23,.84,4.07,2.44,7.59,4.37,10.55,2.9,4.44,6.52,7.63,9.58,9.82,1.53,1.09,2.93,1.93,4.04,2.54,1.11,.61,1.94,1,2.32,1.16l1.29-2.87-1.32,2.85c.52,.24,1.45,.69,2.65,1.41,1.79,1.07,4.15,2.73,6.44,5.09,2.29,2.36,4.51,5.41,6.1,9.31,1.64,4.04,2.14,7.87,2.14,11.05,0,3.34-.55,5.94-.88,7.28l3.05,.75-3.01-.91c-.08,.27-.24,.77-.52,1.43-.41,.99-1.1,2.32-2.12,3.63-1.03,1.31-2.39,2.58-4.22,3.56-2.29,1.22-4.54,1.56-6.41,1.56-.9,0-1.7-.08-2.34-.18-.65-.1-1.13-.21-1.46-.29-1.76-.41-3.46-1.19-5.08-2.31-2.41-1.68-4.62-4.17-6.39-7.27-1.77-3.11-3.1-6.83-3.79-10.93l-6.2,1.05c1.08,6.37,3.47,12.08,6.89,16.58,1.71,2.25,3.68,4.19,5.89,5.73,2.2,1.54,4.64,2.67,7.25,3.28,.36,.08,1.06,.25,1.95,.38,.9,.14,2.01,.25,3.28,.25,2.63,0,5.98-.49,9.37-2.31,1.8-.96,3.31-2.13,4.54-3.36,1.85-1.84,3.1-3.79,3.93-5.42,.42-.82,.73-1.56,.97-2.17,.23-.61,.39-1.1,.48-1.39l.04-.15c.4-1.63,1.06-4.77,1.06-8.79,0-3.83-.6-8.49-2.6-13.42-2.58-6.34-6.55-10.85-10.17-13.89-1.81-1.52-3.53-2.68-4.97-3.54-1.43-.86-2.59-1.42-3.23-1.71l-.04-.02c-.36-.16-1.42-.65-2.87-1.52-2.18-1.29-5.19-3.42-7.85-6.42-2.67-3-5-6.83-6-11.67-.36-1.74-.5-3.4-.5-4.95,0-3.63,.8-6.67,1.45-8.6l-2.98-1.01,2.76,1.51c1.53-2.81,3.76-5.03,6.36-6.56,2.6-1.53,5.56-2.35,8.55-2.35,1.51,0,3.03,.21,4.52,.64,3.52,1.03,6.5,3.21,8.61,6.08,2.11,2.88,3.34,6.43,3.34,10.16,0,.87-.07,1.74-.2,2.62l6.22,.96h0Z"/><polygon class="cls-1" points="729.54 101.66 747.51 16.57 766.72 102.4 772.86 101.01 765.87 70.26 762.8 67.81 732.75 67.81 732.75 74.1 760.29 74.1 766.72 102.41 772.86 101.02 750.5 1.09 744.35 1.12 723.38 100.36 729.54 101.66 729.54 101.66"/><path class="cls-1" d="M785.51,2.12V102.06h30.91l.48-.16c1.98-.65,5.69-2.18,9.01-5.74,2.57-2.76,3.99-5.78,4.76-8.3,.78-2.53,.93-4.61,.97-5.58V21.86l-.02-.18c-.26-2.2-1.06-6.37-4.06-10.55-2.43-3.37-5.41-5.5-7.98-6.83-1.29-.66-2.49-1.13-3.48-1.46-1-.33-1.8-.52-2.29-.63l-.33-.07h-.34c-8.15,0-16.31,0-24.46,0v6.29c8.15,0,16.31,0,24.46,0v-3.14l-.68,3.07c.35,.08,.93,.22,1.67,.46,1.11,.37,2.56,.97,4.04,1.93,1.49,.96,3,2.26,4.3,4.07,2.14,2.97,2.74,6.01,2.92,7.62l3.12-.37h-3.14v60.1h3.14l-3.14-.14c-.03,.67-.14,2.18-.7,4.02-.56,1.83-1.56,3.94-3.35,5.86-2.31,2.49-4.96,3.58-6.37,4.05l.98,2.99v-3.14h-24.11V2.12h-6.29Z"/><polygon class="cls-1" points="842.21 3.93 866.67 102.47 872.79 102.44 896.55 3.2 890.43 1.74 869.67 88.43 848.32 2.41 842.22 3.93 842.21 3.93"/><polyline class="cls-1" points="907.81 1.77 907.81 101.71 914.1 101.71 914.1 1.77"/><path class="cls-1" d="M974.87,27.41c.18-1.2,.27-2.39,.27-3.58,0-5.11-1.67-9.96-4.56-13.89-2.89-3.93-7.01-6.96-11.92-8.4-2.07-.6-4.19-.9-6.28-.9-4.14,0-8.19,1.13-11.74,3.22-3.55,2.09-6.59,5.14-8.69,8.97l-.22,.5c-.8,2.36-1.78,6.07-1.78,10.62,0,1.94,.18,4.03,.63,6.23,.84,4.07,2.44,7.59,4.37,10.55,2.9,4.44,6.52,7.63,9.58,9.82,1.53,1.09,2.93,1.93,4.04,2.54,1.11,.61,1.94,1,2.32,1.16l1.29-2.87-1.32,2.85c.52,.24,1.45,.69,2.65,1.41,1.79,1.07,4.15,2.73,6.44,5.09,2.29,2.36,4.51,5.41,6.1,9.31,1.64,4.04,2.14,7.87,2.14,11.05,0,3.34-.55,5.94-.88,7.28l3.05,.75-3.01-.91c-.08,.27-.24,.77-.52,1.43-.41,.99-1.1,2.32-2.12,3.63-1.03,1.31-2.39,2.58-4.22,3.56-2.29,1.22-4.54,1.56-6.41,1.56-.9,0-1.7-.08-2.34-.18-.65-.1-1.13-.21-1.46-.29-1.76-.41-3.46-1.19-5.08-2.31-2.41-1.68-4.62-4.17-6.39-7.27-1.77-3.11-3.1-6.83-3.79-10.93l-6.2,1.05c1.08,6.37,3.47,12.08,6.89,16.58,1.71,2.25,3.68,4.19,5.89,5.73,2.2,1.54,4.64,2.67,7.25,3.28,.36,.08,1.06,.25,1.95,.38,.9,.14,2.01,.25,3.28,.25,2.63,0,5.98-.49,9.37-2.31,1.8-.96,3.31-2.13,4.54-3.36,1.85-1.84,3.1-3.79,3.93-5.42,.42-.82,.73-1.56,.97-2.17,.23-.61,.39-1.1,.48-1.39l.04-.15c.4-1.63,1.06-4.77,1.06-8.79,0-3.83-.6-8.49-2.6-13.42-2.58-6.34-6.55-10.85-10.17-13.89-1.81-1.52-3.53-2.68-4.97-3.54-1.43-.86-2.59-1.42-3.23-1.71l-.04-.02c-.36-.16-1.42-.65-2.87-1.52-2.18-1.29-5.19-3.42-7.85-6.42-2.67-3-5-6.83-6-11.67-.36-1.74-.5-3.4-.5-4.95,0-3.63,.8-6.67,1.45-8.6l-2.98-1.01,2.76,1.51c1.53-2.81,3.76-5.03,6.36-6.56,2.6-1.53,5.56-2.35,8.55-2.35,1.51,0,3.03,.21,4.52,.64,3.52,1.03,6.5,3.21,8.61,6.08,2.11,2.88,3.34,6.43,3.34,10.16,0,.87-.07,1.74-.2,2.62l6.22,.96h0Z"/><path class="cls-1" d="M991.33,20.64h-3.14v61.72l.03,.21c.87,6.33,3.99,11.76,8.32,15.59,4.33,3.83,9.89,6.11,15.71,6.12,.83,0,1.67-.05,2.5-.14,5.37-.62,10.26-3.18,13.97-6.99,3.71-3.81,6.27-8.9,6.97-14.62l.02-.19V19.54l-.1-.39c-1.41-5.45-4.58-10.07-8.76-13.31-4.17-3.25-9.37-5.14-14.86-5.14-.42,0-.84,.01-1.26,.03h0c-5.42,.29-10.44,2.41-14.4,5.8-3.96,3.38-6.87,8.05-8.07,13.43l-.07,.34v.35h3.14l3.07,.68c.89-4.02,3.06-7.49,6.02-10.02,2.95-2.53,6.67-4.09,10.65-4.3h0c.3-.02,.61-.02,.92-.02,4.03,0,7.88,1.39,11,3.82,3.12,2.43,5.48,5.86,6.53,9.93l3.04-.79h-3.14v62.2h3.14l-3.12-.38c-.53,4.33-2.46,8.15-5.23,11-2.77,2.85-6.35,4.7-10.17,5.13-.6,.07-1.19,.1-1.79,.1-4.16,0-8.29-1.65-11.54-4.53-3.25-2.88-5.6-6.95-6.25-11.74l-3.12,.43h3.14V20.64h-3.14l3.07,.68-3.07-.68Z"/><polygon class="cls-1" points="1054.92 5.27 1051.78 5.27 1051.78 101.01 1058.07 101.01 1058.07 5.27 1051.78 5.27 1054.92 5.27 1051.78 5.27 1051.78 101.01 1058.07 101.01 1058.07 5.27 1051.78 5.27 1054.92 5.27"/><path class="cls-1" d="M1051.78,8.41h28.45c.13,0,.28-.01,.45-.01,.57,0,1.41,.05,2.34,.28,.94,.23,1.97,.62,2.99,1.3,.92,.62,1.62,1.33,2.18,2.08,.84,1.13,1.36,2.38,1.65,3.4,.15,.51,.24,.96,.3,1.3,.06,.34,.08,.57,.09,.66l3.13-.27h-3.14c0,6.76,0,13.51,0,20.27h3.14l-3.1-.55c-.09,.5-.27,1.34-.68,2.3-.41,.97-1.03,2.05-2,3.06-.72,.76-1.49,1.33-2.27,1.77-1.16,.66-2.35,1.03-3.32,1.22-.48,.1-.91,.15-1.25,.18-.34,.03-.58,.04-.72,.04l.05,3.14v-3.14h-24.96v6.29h24.96v-3.14l-3.01,.91c5.36,17.7,10.72,35.41,16.07,53.11l6.02-1.82c-5.36-17.7-10.72-35.41-16.07-53.11l-.68-2.23h-27.3v6.29h25.02c.32,0,.95-.02,1.76-.12,1.22-.15,2.87-.48,4.69-1.23,1.81-.75,3.8-1.95,5.57-3.81,1.58-1.66,2.59-3.42,3.24-4.96,.65-1.53,.94-2.85,1.08-3.65l.05-.27V16.88c-.03-.27-.1-.91-.27-1.75-.26-1.27-.76-3.04-1.78-4.92-1.02-1.88-2.59-3.88-4.93-5.46-1.73-1.17-3.49-1.83-5.03-2.2-1.54-.37-2.87-.45-3.81-.45-.29,0-.55,0-.75,.02l.15,3.14V2.12h-28.3v6.29h0Z"/><polygon class="cls-1" points="1105.78 4.23 1131.84 76.91 1157.13 4.2 1151.19 2.14 1128.65 66.93 1128.65 102.41 1134.94 102.41 1134.94 68 1157.13 4.2 1151.19 2.14 1131.75 58.02 1111.7 2.11 1105.78 4.23 1105.78 4.23"/></g></g></svg>