<?xml version="1.0" encoding="UTF-8"?><svg id="Layer_2" xmlns="http://www.w3.org/2000/svg" viewBox="0 0 586.49 150.38"><defs><style>.cls-1{fill:#fff;}</style></defs><g id="Layer_3"><g><g><g><path class="cls-1" d="M166.82,99.18c-3.79,0-7.21-.65-10.28-1.94-3.06-1.29-5.68-3.05-7.84-5.27-2.16-2.22-3.83-4.81-5-7.75-1.17-2.94-1.76-6.04-1.76-9.29s.57-6.54,1.71-9.51c1.14-2.98,2.79-5.59,4.96-7.84,2.16-2.25,4.79-4.04,7.89-5.37,3.1-1.32,6.57-1.98,10.41-1.98s7.29,.66,10.32,1.98c3.03,1.32,5.62,3.1,7.75,5.32,2.13,2.22,3.76,4.81,4.87,7.75,1.11,2.95,1.67,6.01,1.67,9.2,0,.78-.02,1.53-.05,2.25-.03,.72-.11,1.32-.23,1.8h-36.51c.18,1.86,.63,3.52,1.35,4.96,.72,1.44,1.65,2.68,2.79,3.7,1.14,1.02,2.43,1.8,3.88,2.34,1.44,.54,2.94,.81,4.51,.81,2.4,0,4.67-.59,6.81-1.76,2.13-1.17,3.59-2.72,4.37-4.64l10.37,2.88c-1.74,3.61-4.52,6.57-8.34,8.88-3.82,2.31-8.37,3.47-13.66,3.47Zm12.26-28.49c-.3-3.55-1.61-6.39-3.92-8.52-2.31-2.13-5.12-3.2-8.43-3.2-1.62,0-3.14,.29-4.55,.86-1.41,.57-2.66,1.37-3.74,2.39-1.08,1.02-1.97,2.25-2.66,3.7-.69,1.44-1.1,3.04-1.22,4.78h24.52Z"/><path class="cls-1" d="M210.36,98.28l-17.4-47.24h12.44l11.99,37.41,12.08-37.41h11.36l-17.4,47.24h-13.07Z"/><path class="cls-1" d="M267.43,99.18c-3.79,0-7.21-.65-10.28-1.94-3.06-1.29-5.68-3.05-7.84-5.27-2.16-2.22-3.83-4.81-5-7.75-1.17-2.94-1.76-6.04-1.76-9.29s.57-6.54,1.71-9.51c1.14-2.98,2.79-5.59,4.96-7.84,2.16-2.25,4.79-4.04,7.89-5.37,3.1-1.32,6.57-1.98,10.41-1.98s7.29,.66,10.32,1.98c3.03,1.32,5.62,3.1,7.75,5.32,2.13,2.22,3.76,4.81,4.87,7.75,1.11,2.95,1.67,6.01,1.67,9.2,0,.78-.02,1.53-.05,2.25-.03,.72-.11,1.32-.23,1.8h-36.51c.18,1.86,.63,3.52,1.35,4.96,.72,1.44,1.65,2.68,2.79,3.7,1.14,1.02,2.43,1.8,3.88,2.34,1.44,.54,2.94,.81,4.51,.81,2.4,0,4.67-.59,6.81-1.76,2.13-1.17,3.59-2.72,4.37-4.64l10.37,2.88c-1.74,3.61-4.52,6.57-8.34,8.88-3.82,2.31-8.37,3.47-13.66,3.47Zm12.26-28.49c-.3-3.55-1.61-6.39-3.92-8.52-2.31-2.13-5.12-3.2-8.43-3.2-1.62,0-3.14,.29-4.55,.86-1.41,.57-2.66,1.37-3.74,2.39-1.08,1.02-1.97,2.25-2.66,3.7-.69,1.44-1.1,3.04-1.22,4.78h24.52Z"/><path class="cls-1" d="M327.65,61.49c-3.67,.06-6.94,.77-9.83,2.12-2.88,1.35-4.96,3.38-6.22,6.09v28.58h-12.08V51.04h11.09v10.1c.84-1.62,1.83-3.08,2.98-4.37,1.14-1.29,2.37-2.42,3.7-3.38,1.32-.96,2.66-1.7,4.01-2.21,1.35-.51,2.66-.77,3.92-.77h1.49c.33,0,.64,.03,.95,.09v11Z"/><path class="cls-1" d="M352.27,99.18c-3.97,0-7.84-.63-11.63-1.89-3.79-1.26-7.03-3.06-9.74-5.41l4.51-7.57c2.89,2.04,5.69,3.59,8.43,4.64,2.73,1.05,5.45,1.58,8.16,1.58,2.4,0,4.3-.45,5.68-1.35,1.38-.9,2.07-2.19,2.07-3.88s-.81-2.91-2.43-3.7c-1.62-.78-4.27-1.68-7.93-2.7-3.06-.84-5.68-1.65-7.84-2.44-2.16-.78-3.91-1.67-5.23-2.66-1.32-.99-2.28-2.13-2.88-3.43-.6-1.29-.9-2.84-.9-4.64,0-2.4,.46-4.57,1.4-6.49,.93-1.92,2.24-3.56,3.92-4.91,1.68-1.35,3.65-2.39,5.9-3.11,2.25-.72,4.7-1.08,7.35-1.08,3.55,0,6.87,.51,9.96,1.53,3.1,1.02,5.94,2.68,8.52,4.96l-4.87,7.3c-2.4-1.8-4.73-3.12-6.99-3.97-2.25-.84-4.49-1.26-6.72-1.26-2.04,0-3.76,.42-5.14,1.26-1.38,.84-2.07,2.19-2.07,4.06,0,.84,.16,1.53,.5,2.07,.33,.54,.86,1.02,1.58,1.44,.72,.42,1.67,.83,2.84,1.22,1.17,.39,2.63,.8,4.37,1.22,3.25,.84,6.02,1.68,8.34,2.52,2.31,.84,4.21,1.8,5.68,2.89,1.47,1.08,2.55,2.33,3.25,3.74,.69,1.41,1.04,3.11,1.04,5.09,0,4.63-1.71,8.28-5.14,10.95-3.43,2.68-8.08,4.01-13.97,4.01Z"/><path class="cls-1" d="M401.13,99.18c-3.79,0-7.21-.65-10.28-1.94-3.07-1.29-5.68-3.05-7.85-5.27-2.16-2.22-3.83-4.81-5-7.75-1.17-2.94-1.76-6.04-1.76-9.29s.57-6.54,1.71-9.51c1.14-2.98,2.79-5.59,4.96-7.84,2.16-2.25,4.79-4.04,7.89-5.37,3.1-1.32,6.57-1.98,10.41-1.98s7.29,.66,10.32,1.98c3.03,1.32,5.62,3.1,7.75,5.32,2.13,2.22,3.76,4.81,4.87,7.75,1.11,2.95,1.67,6.01,1.67,9.2,0,.78-.01,1.53-.04,2.25-.03,.72-.11,1.32-.23,1.8h-36.51c.18,1.86,.63,3.52,1.35,4.96,.72,1.44,1.65,2.68,2.79,3.7,1.14,1.02,2.43,1.8,3.88,2.34,1.44,.54,2.94,.81,4.51,.81,2.4,0,4.67-.59,6.81-1.76,2.13-1.17,3.59-2.72,4.37-4.64l10.37,2.88c-1.74,3.61-4.52,6.57-8.34,8.88-3.82,2.31-8.37,3.47-13.66,3.47Zm12.26-28.49c-.3-3.55-1.61-6.39-3.92-8.52-2.31-2.13-5.12-3.2-8.43-3.2-1.62,0-3.14,.29-4.55,.86-1.41,.57-2.66,1.37-3.74,2.39-1.08,1.02-1.97,2.25-2.66,3.7-.69,1.44-1.1,3.04-1.22,4.78h24.52Z"/><path class="cls-1" d="M451.53,34.27h11l24.34,64.01h-12.8l-5.95-15.96h-22.36l-5.86,15.96h-12.8l24.43-64.01Zm14.33,39.31l-8.84-25.15-9.19,25.15h18.03Z"/><path class="cls-1" d="M510.94,99.18c-3.24,0-6.25-.63-9.02-1.89-2.77-1.26-5.14-3-7.12-5.23-1.98-2.22-3.53-4.82-4.64-7.8-1.11-2.97-1.67-6.18-1.67-9.6s.52-6.61,1.58-9.56c1.05-2.94,2.51-5.53,4.37-7.75,1.86-2.22,4.09-3.97,6.67-5.23,2.58-1.26,5.41-1.89,8.47-1.89,3.48,0,6.63,.84,9.42,2.52,2.79,1.68,4.97,3.88,6.54,6.58v-26.87h12.08v51.93c0,1.26,.21,2.16,.63,2.71,.42,.54,1.14,.84,2.16,.9v10.28c-2.1,.42-3.82,.63-5.14,.63-2.16,0-3.94-.54-5.32-1.62-1.38-1.08-2.16-2.49-2.34-4.24l-.27-2.98c-1.74,3.01-4.1,5.27-7.08,6.81-2.97,1.53-6.09,2.3-9.33,2.3Zm3.16-10.28c1.14,0,2.31-.19,3.52-.59,1.2-.39,2.31-.95,3.34-1.67,1.02-.72,1.94-1.56,2.75-2.52,.81-.96,1.43-2.01,1.85-3.16v-11.27c-.48-1.32-1.16-2.54-2.03-3.65-.87-1.11-1.86-2.07-2.98-2.89-1.11-.81-2.28-1.46-3.52-1.94-1.23-.48-2.45-.72-3.65-.72-1.8,0-3.47,.39-5,1.17-1.53,.78-2.84,1.85-3.92,3.2-1.08,1.35-1.92,2.9-2.52,4.64-.6,1.75-.9,3.55-.9,5.41,0,1.98,.33,3.82,.99,5.5,.66,1.68,1.56,3.16,2.7,4.42,1.14,1.26,2.51,2.25,4.1,2.97,1.59,.72,3.35,1.08,5.27,1.08Z"/><path class="cls-1" d="M567.38,99.18c-3.97,0-7.84-.63-11.63-1.89-3.79-1.26-7.03-3.06-9.74-5.41l4.51-7.57c2.89,2.04,5.69,3.59,8.43,4.64,2.73,1.05,5.45,1.58,8.16,1.58,2.4,0,4.3-.45,5.68-1.35,1.38-.9,2.07-2.19,2.07-3.88s-.81-2.91-2.43-3.7c-1.62-.78-4.27-1.68-7.93-2.7-3.06-.84-5.68-1.65-7.84-2.44-2.16-.78-3.91-1.67-5.23-2.66-1.32-.99-2.28-2.13-2.88-3.43-.6-1.29-.9-2.84-.9-4.64,0-2.4,.46-4.57,1.4-6.49,.93-1.92,2.24-3.56,3.92-4.91,1.68-1.35,3.65-2.39,5.9-3.11,2.25-.72,4.7-1.08,7.35-1.08,3.55,0,6.87,.51,9.96,1.53,3.1,1.02,5.94,2.68,8.52,4.96l-4.87,7.3c-2.4-1.8-4.73-3.12-6.99-3.97-2.25-.84-4.49-1.26-6.72-1.26-2.04,0-3.76,.42-5.14,1.26-1.38,.84-2.07,2.19-2.07,4.06,0,.84,.16,1.53,.5,2.07,.33,.54,.86,1.02,1.58,1.44,.72,.42,1.67,.83,2.84,1.22,1.17,.39,2.63,.8,4.37,1.22,3.25,.84,6.02,1.68,8.34,2.52,2.31,.84,4.21,1.8,5.68,2.89,1.47,1.08,2.55,2.33,3.25,3.74,.69,1.41,1.04,3.11,1.04,5.09,0,4.63-1.71,8.28-5.14,10.95-3.43,2.68-8.08,4.01-13.97,4.01Z"/></g><g><path class="cls-1" d="M110.76,80.22c-.32-.49-.19-1.13,.27-1.47,10.64-7.95,17.54-20.63,17.54-34.93v-.22C128.57,19.51,109.06,0,84.98,0H32.29c-.6,0-1.09,.49-1.09,1.09V42.65c0,.6,.49,1.09,1.09,1.09h8.73c.6,0,1.09-.49,1.09-1.09V12c0-.6,.49-1.09,1.09-1.09h41.78c18.04,0,32.67,14.63,32.67,32.67v.22c0,10.55-5.15,20.51-13.78,26.65l-7.7,5.47c-.48,.34-.6,1-.28,1.49l23.17,35.49c.47,.73-.05,1.69-.91,1.69h-10.43c-.37,0-.71-.19-.91-.49l-24.24-37.12c-.2-.31-.55-.49-.91-.49H1.09c-.97,0-1.46,1.17-.77,1.86l18.1,18.14c.69,.69,1.86,.2,1.86-.77v-7.23c0-.6,.49-1.09,1.09-1.09h54.38c.37,0,.71,.19,.91,.49l24.24,37.12c.2,.31,.55,.49,.91,.49h36.49c.87,0,1.39-.96,.91-1.69l-28.47-43.59Z"/><path class="cls-1" d="M51.94,114.59h-8.73c-.6,0-1.09-.49-1.09-1.09v-14.1c0-.6-.49-1.09-1.09-1.09h-8.73c-.6,0-1.09,.49-1.09,1.09v25.01c0,.6,.49,1.09,1.09,1.09h30.56c.6,0,1.09-.49,1.09-1.09v-25.01c0-.6-.49-1.09-1.09-1.09h-8.73c-.6,0-1.09,.49-1.09,1.09v14.1c0,.6-.49,1.09-1.09,1.09Z"/><path class="cls-1" d="M84.98,21.83h-30.87c-.6,0-1.09,.49-1.09,1.09v19.73c0,.6,.49,1.09,1.09,1.09h8.73c.6,0,1.09-.49,1.09-1.09v-8.82c0-.6,.49-1.09,1.09-1.09h19.95c5.99,0,10.85,4.86,10.85,10.85v.22c0,5.99-4.86,10.85-10.85,10.85H21.38c-.6,0-1.09-.49-1.09-1.09v-7.23c0-.97-1.18-1.46-1.86-.77L.32,63.71c-.69,.69-.2,1.86,.77,1.86H84.98c12.02,0,21.76-9.74,21.76-21.76v-.22c0-12.02-9.74-21.76-21.76-21.76Z"/></g></g><g><path class="cls-1" d="M242.99,142.42h-3.86v-20.33h-6.95v-3.32h17.77v3.32h-6.95v20.33Z"/><path class="cls-1" d="M268.9,142.42h-3.82v-11c0-1.38-.28-2.41-.83-3.09-.56-.68-1.44-1.02-2.64-1.02-1.6,0-2.77,.48-3.52,1.43s-1.12,2.55-1.12,4.79v8.88h-3.8v-25.16h3.8v6.39c0,1.02-.06,2.12-.19,3.28h.24c.52-.86,1.24-1.53,2.16-2.01,.92-.47,2-.71,3.23-.71,4.33,0,6.5,2.18,6.5,6.55v11.66Z"/><path class="cls-1" d="M282,142.75c-2.78,0-4.96-.81-6.52-2.43-1.57-1.62-2.35-3.86-2.35-6.7s.73-5.22,2.18-6.89c1.46-1.67,3.46-2.51,6-2.51,2.36,0,4.23,.72,5.6,2.15,1.37,1.43,2.05,3.41,2.05,5.92v2.05h-11.92c.05,1.74,.52,3.07,1.41,4,.88,.93,2.13,1.4,3.74,1.4,1.06,0,2.04-.1,2.95-.3,.91-.2,1.89-.53,2.94-.99v3.09c-.93,.44-1.87,.75-2.81,.94-.95,.18-2.03,.27-3.25,.27Zm-.7-15.65c-1.21,0-2.17,.38-2.9,1.15-.73,.77-1.16,1.88-1.3,3.35h8.12c-.02-1.48-.38-2.6-1.07-3.36-.69-.76-1.64-1.14-2.85-1.14Z"/><path class="cls-1" d="M320.32,142.42h-4.48l-7.42-10.71-2.28,1.86v8.85h-3.86v-23.64h3.86v11.29c1.06-1.29,2.11-2.54,3.15-3.74l6.39-7.55h4.4c-4.13,4.85-7.09,8.31-8.88,10.37l9.12,13.28Z"/><path class="cls-1" d="M330.85,142.75c-2.78,0-4.96-.81-6.52-2.43-1.57-1.62-2.35-3.86-2.35-6.7s.73-5.22,2.18-6.89c1.46-1.67,3.46-2.51,6-2.51,2.36,0,4.23,.72,5.6,2.15,1.37,1.43,2.05,3.41,2.05,5.92v2.05h-11.92c.05,1.74,.52,3.07,1.41,4,.88,.93,2.13,1.4,3.74,1.4,1.06,0,2.04-.1,2.95-.3,.91-.2,1.89-.53,2.94-.99v3.09c-.93,.44-1.87,.75-2.81,.94-.95,.18-2.03,.27-3.25,.27Zm-.7-15.65c-1.21,0-2.17,.38-2.9,1.15-.73,.77-1.16,1.88-1.3,3.35h8.12c-.02-1.48-.38-2.6-1.07-3.36-.69-.76-1.64-1.14-2.85-1.14Z"/><path class="cls-1" d="M339.4,124.54h4.14l3.64,10.14c.55,1.44,.92,2.8,1.1,4.08h.13c.1-.59,.27-1.31,.53-2.16s1.63-4.86,4.11-12.06h4.11l-7.65,20.26c-1.39,3.72-3.71,5.58-6.95,5.58-.84,0-1.66-.09-2.46-.27v-3.01c.57,.13,1.22,.19,1.96,.19,1.83,0,3.12-1.06,3.86-3.19l.66-1.68-7.18-17.89Z"/><path class="cls-1" d="M374.54,142.42l-2.31-8.34c-.28-.88-.79-2.94-1.52-6.16h-.15c-.63,2.91-1.12,4.97-1.49,6.19l-2.38,8.31h-4.2l-5.01-17.89h3.88l2.28,8.81c.52,2.18,.88,4.04,1.1,5.6h.1c.11-.79,.27-1.69,.49-2.71,.22-1.02,.41-1.78,.57-2.29l2.72-9.41h4.17l2.64,9.41c.16,.53,.36,1.34,.61,2.43,.24,1.09,.38,1.93,.43,2.54h.13c.16-1.33,.54-3.18,1.13-5.56l2.31-8.81h3.82l-5.05,17.89h-4.27Z"/><path class="cls-1" d="M402.79,133.45c0,2.92-.75,5.2-2.25,6.84-1.5,1.64-3.58,2.46-6.26,2.46-1.67,0-3.15-.38-4.43-1.13-1.28-.75-2.27-1.84-2.96-3.25-.69-1.41-1.03-3.05-1.03-4.92,0-2.9,.74-5.16,2.23-6.79,1.49-1.63,3.58-2.44,6.29-2.44s4.64,.83,6.14,2.5c1.51,1.67,2.26,3.91,2.26,6.74Zm-13.02,0c0,4.13,1.53,6.19,4.58,6.19s4.53-2.06,4.53-6.19-1.52-6.13-4.56-6.13c-1.6,0-2.75,.53-3.47,1.58-.72,1.06-1.08,2.57-1.08,4.54Z"/><path class="cls-1" d="M416.23,124.22c.77,0,1.4,.05,1.89,.16l-.37,3.54c-.54-.13-1.1-.19-1.68-.19-1.52,0-2.75,.5-3.69,1.49-.94,.99-1.42,2.28-1.42,3.86v9.35h-3.8v-17.89h2.98l.5,3.15h.19c.59-1.07,1.37-1.91,2.32-2.54s1.98-.94,3.08-.94Z"/><path class="cls-1" d="M427.47,142.75c-2.23,0-3.97-.81-5.22-2.43-1.25-1.62-1.88-3.89-1.88-6.81s.63-5.21,1.9-6.85,3.02-2.45,5.26-2.45,4.14,.87,5.37,2.6h.19c-.18-1.28-.27-2.3-.27-3.04v-6.52h3.82v25.16h-2.98l-.66-2.34h-.18c-1.22,1.78-3,2.67-5.35,2.67Zm1.02-3.07c1.56,0,2.7-.44,3.41-1.32,.71-.88,1.08-2.3,1.1-4.28v-.53c0-2.25-.37-3.85-1.1-4.8s-1.88-1.42-3.44-1.42c-1.34,0-2.37,.54-3.09,1.63-.72,1.08-1.08,2.63-1.08,4.63s.35,3.5,1.05,4.54c.7,1.04,1.75,1.56,3.15,1.56Z"/><path class="cls-1" d="M470.77,142.42h-4.74l-11.63-18.84h-.13l.08,1.05c.15,2.01,.23,3.84,.23,5.5v12.29h-3.51v-23.64h4.69l11.59,18.74h.1c-.02-.25-.06-1.15-.13-2.71s-.1-2.77-.1-3.65v-12.39h3.54v23.64Z"/><path class="cls-1" d="M484.42,142.75c-2.78,0-4.96-.81-6.52-2.43-1.57-1.62-2.35-3.86-2.35-6.7s.73-5.22,2.18-6.89c1.46-1.67,3.46-2.51,6-2.51,2.36,0,4.23,.72,5.6,2.15,1.37,1.43,2.05,3.41,2.05,5.92v2.05h-11.92c.05,1.74,.52,3.07,1.41,4,.88,.93,2.13,1.4,3.74,1.4,1.06,0,2.04-.1,2.95-.3,.91-.2,1.89-.53,2.94-.99v3.09c-.93,.44-1.87,.75-2.81,.94-.95,.18-2.03,.27-3.25,.27Zm-.7-15.65c-1.21,0-2.17,.38-2.9,1.15-.73,.77-1.16,1.88-1.3,3.35h8.12c-.02-1.48-.38-2.6-1.07-3.36-.69-.76-1.64-1.14-2.85-1.14Z"/><path class="cls-1" d="M502.35,139.68c.93,0,1.85-.15,2.78-.44v2.86c-.42,.18-.96,.34-1.63,.46-.66,.12-1.35,.19-2.06,.19-3.6,0-5.4-1.9-5.4-5.69v-9.64h-2.44v-1.68l2.62-1.39,1.29-3.78h2.34v3.98h5.09v2.88h-5.09v9.57c0,.92,.23,1.59,.69,2.03,.46,.44,1.06,.66,1.8,.66Z"/><path class="cls-1" d="M523.37,142.42l-2.31-8.34c-.28-.88-.79-2.94-1.52-6.16h-.15c-.63,2.91-1.12,4.97-1.49,6.19l-2.38,8.31h-4.2l-5.01-17.89h3.88l2.28,8.81c.52,2.18,.88,4.04,1.1,5.6h.1c.11-.79,.27-1.69,.49-2.71,.22-1.02,.41-1.78,.57-2.29l2.72-9.41h4.17l2.64,9.41c.16,.53,.36,1.34,.61,2.43,.24,1.09,.38,1.93,.43,2.54h.13c.16-1.33,.54-3.18,1.13-5.56l2.31-8.81h3.82l-5.05,17.89h-4.27Z"/><path class="cls-1" d="M551.62,133.45c0,2.92-.75,5.2-2.25,6.84-1.5,1.64-3.58,2.46-6.26,2.46-1.67,0-3.15-.38-4.43-1.13-1.28-.75-2.27-1.84-2.96-3.25-.69-1.41-1.03-3.05-1.03-4.92,0-2.9,.74-5.16,2.23-6.79,1.49-1.63,3.58-2.44,6.29-2.44s4.64,.83,6.14,2.5c1.51,1.67,2.26,3.91,2.26,6.74Zm-13.02,0c0,4.13,1.53,6.19,4.58,6.19s4.53-2.06,4.53-6.19-1.52-6.13-4.56-6.13c-1.6,0-2.75,.53-3.47,1.58-.72,1.06-1.08,2.57-1.08,4.54Z"/><path class="cls-1" d="M565.06,124.22c.77,0,1.4,.05,1.89,.16l-.37,3.54c-.54-.13-1.1-.19-1.68-.19-1.52,0-2.75,.5-3.69,1.49-.94,.99-1.42,2.28-1.42,3.86v9.35h-3.8v-17.89h2.98l.5,3.15h.19c.59-1.07,1.37-1.91,2.32-2.54s1.98-.94,3.08-.94Z"/><path class="cls-1" d="M573.94,132.98l2.15-2.68,5.4-5.76h4.38l-7.2,7.68,7.65,10.2h-4.46l-5.74-7.84-2.09,1.71v6.13h-3.77v-25.16h3.77v12.27l-.19,3.44h.1Z"/></g></g></g></svg>