<?xml version="1.0" encoding="UTF-8"?><svg id="Layer_2" xmlns="http://www.w3.org/2000/svg" viewBox="0 0 101.65 94.55"><defs><style>.cls-1{fill:none;}.cls-2{fill:#fff;}</style></defs><g id="Layer_3"><rect class="cls-1" x=".01" y="0" width="101.64" height="94.54"/><g id="Group_2075" transform="translate(0 0)"><path id="Path_2746" class="cls-2" d="M70.03,24.42l-2.02-3.6c-3.44,1.92-5.57,5.55-5.56,9.49,0,.5,.03,.99,.1,1.48l4.08-.57,3.47-2.24-.32-.5c-1.03-1.59-2.44-2.9-4.1-3.81-1.63-.89-3.46-1.36-5.32-1.37-1.93,0-3.82,.52-5.47,1.52h0c-5.14,3.09-6.8,9.77-3.71,14.91,.06,.1,.12,.19,.18,.29,1.28,1.88,3.85,2.37,5.73,1.09,1.82-1.24,2.35-3.69,1.2-5.56l-.89-1.38c-1.03-1.59-2.44-2.9-4.1-3.81-1.63-.89-3.46-1.36-5.32-1.37-1.93,0-3.82,.52-5.47,1.52h0c-5.14,3.09-6.8,9.77-3.71,14.91,.06,.1,.12,.2,.18,.29,1.23,1.91,3.79,2.47,5.7,1.23,1.91-1.23,2.47-3.79,1.23-5.7h0l-13.6-21.11c-1.03-1.59-2.44-2.9-4.1-3.81-1.63-.89-3.46-1.36-5.32-1.37-1.93,0-3.82,.52-5.47,1.52h0c-5.14,3.09-6.8,9.77-3.71,14.91,.06,.1,.12,.19,.18,.29h0l20.63,32,3.47-2.24,1.27-3.92c-4.51-1.47-9.22-2.21-13.97-2.22-.98,0-1.97,.03-2.95,.1h0c-5.77,.38-10.13,5.37-9.75,11.14,.06,.91,.24,1.8,.53,2.66h0c.73,2.16,2.16,4.02,4.07,5.26,1.82,1.2,3.95,1.83,6.13,1.82,.21,0,.42,0,.63-.02h.01c.4-.02,.79-.03,1.18-.03,2.41,.02,4.81,.4,7.11,1.12,3.75,1.23,7.32,2.94,10.63,5.08,3.51,2.17,6.96,4.68,10.31,7.07,1.92,1.37,4,2.5,6.2,3.35,5.19,2.05,10.93,2.27,16.27,.64,2.73-.84,5.33-2.06,7.72-3.62l6.82-4.4c2.03-1.29,3.86-2.85,5.46-4.64,2.11-2.39,3.71-5.18,4.69-8.21,.86-2.7,1.29-5.52,1.27-8.36-.03-3.53-.57-7.04-1.63-10.41-.39-1.29-.86-2.56-1.4-3.79-.24-.54-.46-1.02-.69-1.46s-.44-.82-.68-1.19l-.85-1.31-10.68-16.59-3.12-4.84c-1.02-1.59-2.43-2.89-4.09-3.8-1.63-.89-3.45-1.36-5.31-1.37-1.82,0-3.6,.46-5.18,1.35h0l2.02,3.6,2.02,3.6c.35-.2,.74-.3,1.14-.29,.47,0,.94,.13,1.36,.36,.45,.24,.83,.6,1.11,1.03l3.12,4.84,10.69,16.58,.85,1.31c.05,.07,.16,.26,.29,.52,.32,.63,.61,1.27,.86,1.93,1.23,3.17,1.89,6.54,1.93,9.94,.04,2.63-.5,5.24-1.6,7.64-.6,1.26-1.37,2.43-2.3,3.47-1.1,1.23-2.36,2.29-3.75,3.17l-6.82,4.4c-1.74,1.14-3.63,2.04-5.62,2.66-3.58,1.1-7.44,.95-10.92-.43-1.55-.61-3.03-1.41-4.39-2.38-4.7-3.53-9.62-6.75-14.73-9.66-2.74-1.49-5.62-2.71-8.59-3.65-3.08-.96-6.29-1.46-9.52-1.48-.55,0-1.1,.01-1.65,.05h.01c-.07,0-.13,0-.19,0-.56,0-1.11-.15-1.59-.46-.37-.23-.66-.58-.8-1h0c-.08-.24-.12-.48-.12-.73,0-1.17,.9-2.13,2.07-2.21h0c.8-.05,1.6-.08,2.4-.08,3.88,0,7.73,.61,11.42,1.81,2.17,.7,4.5-.49,5.2-2.66,.38-1.18,.21-2.46-.46-3.5L20.83,27.19h0c-.27-.42-.42-.91-.42-1.41,0-.45,.11-.89,.33-1.28,.22-.4,.55-.74,.94-.97h0c.36-.22,.78-.33,1.21-.33,.48,0,.95,.13,1.37,.36,.45,.24,.84,.6,1.11,1.03l13.61,21.11c1.21,1.93,3.76,2.51,5.69,1.3,1.93-1.21,2.51-3.76,1.3-5.69-.02-.03-.04-.06-.05-.08-.27-.42-.42-.91-.42-1.41,0-.45,.11-.88,.33-1.28,.22-.4,.55-.74,.94-.97h0c.36-.22,.78-.33,1.21-.33,.48,0,.95,.13,1.37,.36,.45,.24,.84,.6,1.12,1.03l.89,1.38c1.21,1.93,3.76,2.52,5.69,1.31,1.93-1.21,2.52-3.76,1.31-5.69-.02-.03-.04-.06-.06-.09-.27-.42-.42-.91-.42-1.41,0-.45,.11-.89,.33-1.28,.22-.4,.55-.74,.94-.97h0c.36-.22,.78-.33,1.21-.33,.48,0,.95,.13,1.37,.36,.45,.25,.84,.6,1.12,1.03l.32,.5c1.24,1.91,3.79,2.47,5.7,1.23,1.35-.87,2.07-2.45,1.85-4.04-.07-.57,.04-1.15,.32-1.65,.24-.41,.58-.75,1-.98h0l-2.02-3.6Z"/><path id="Path_2747" class="cls-2" d="M16.25,38.95C6.21,36.45,.1,26.28,2.6,16.24,5.1,6.2,15.27,.09,25.31,2.59c10.04,2.5,16.15,12.67,13.65,22.71v.04c-.12,.56,.24,1.1,.8,1.21,.52,.1,1.04-.21,1.19-.71,2.79-11.13-3.97-22.42-15.11-25.21C14.71-2.16,3.42,4.6,.63,15.74c-2.79,11.13,3.97,22.42,15.11,25.21h.01c.55,.15,1.12-.17,1.27-.72s-.17-1.12-.72-1.27h-.04Z"/></g></g></svg>