<?xml version="1.0" encoding="UTF-8"?><svg id="Layer_2" xmlns="http://www.w3.org/2000/svg" viewBox="0 0 91.38 82.33"><defs><style>.cls-1{fill:#fff;}</style></defs><g id="Layer_3"><g id="Group_2105"><path id="Path_2751" class="cls-1" d="M82.22,66.55c5.65-9.26,2.72-21.34-6.54-26.99s-21.34-2.72-26.99,6.54c-5.65,9.26-2.72,21.34,6.54,26.99,3.08,1.88,6.62,2.87,10.23,2.87,3.61-.02,7.14-1.01,10.23-2.88l7.86,7.9c1.78,1.79,4.67,1.8,6.46,.03l.03-.03c1.79-1.78,1.8-4.67,.03-6.46l-.03-.03-7.81-7.95Zm-9.14-2.6c-4.18,3.98-10.75,3.98-14.94,0-4.13-4.12-4.13-10.81-.01-14.94,4.12-4.13,10.81-4.13,14.94-.01h.01c4.1,4.15,4.1,10.82,0,14.95M77.65,0H13.7C6.13,0,0,6.13,0,13.7H0V54.81C0,62.38,6.13,68.51,13.7,68.51H31.97c2.52,.04,4.6-1.98,4.64-4.5,.04-2.52-1.98-4.6-4.5-4.64-.05,0-.09,0-.14,0H13.7c-2.52,0-4.57-2.05-4.57-4.57h0V27.41H82.22v4.57c.04,2.52,2.11,4.54,4.64,4.5,2.47-.04,4.46-2.03,4.5-4.5V13.7C91.35,6.13,85.22,0,77.65,0h0m4.57,18.27H9.14v-4.57c0-2.52,2.04-4.56,4.56-4.56h63.95c2.52,0,4.57,2.04,4.57,4.56v4.57Zm-45.68,18.27h-13.7c-2.52-.04-4.6,1.98-4.64,4.5s1.98,4.6,4.5,4.64c.05,0,.09,0,.14,0h13.7c2.52-.04,4.54-2.11,4.5-4.64-.04-2.47-2.03-4.46-4.5-4.5"/></g></g></svg>