<?xml version="1.0" encoding="UTF-8"?><svg id="Layer_2" xmlns="http://www.w3.org/2000/svg" viewBox="0 0 90.42 90.42"><defs><style>.cls-1{fill:#fff;}</style></defs><g id="Layer_3"><g id="Group_1984"><path id="Path_2704" class="cls-1" d="M76.86,0H13.56C6.07,0,0,6.07,0,13.56V58.77c0,7.49,6.07,13.56,13.56,13.56h11.94l-2.62,4.52c-2.5,4.33-1.01,9.85,3.31,12.35,1.4,.81,2.99,1.22,4.6,1.21h29.2c4.99,0,9.04-4.06,9.03-9.05,0-1.58-.42-3.14-1.21-4.51l-2.67-4.52h11.71c7.49,0,13.56-6.07,13.56-13.56h0V13.56C90.42,6.07,84.35,0,76.86,0M30.61,81.38l5.56-9.04h18.08l5.43,9.04H30.61Zm50.77-22.6c0,2.5-2.02,4.52-4.52,4.52H13.56c-2.5,0-4.52-2.02-4.52-4.52h0v-4.52H81.38v4.52Zm0-13.56H9.04V13.56c0-2.5,2.02-4.52,4.52-4.52h63.29c2.5,0,4.52,2.02,4.52,4.52v31.65Z"/><path id="Path_2705" class="cls-1" d="M20.41,38.41l18.52-11.92,15.92,8.96c1.11,.62,2.45,.65,3.59,.09l15.13-7.57c1.9-.93,2.69-3.21,1.76-5.11-.93-1.9-3.21-2.69-5.11-1.76-.02,.01-.05,.02-.07,.04l-13.32,6.66-16.16-9.09c-1.23-.69-2.75-.65-3.94,.12l-20.46,13.17c-1.8,1.11-2.35,3.47-1.23,5.27,1.11,1.8,3.47,2.35,5.27,1.23,.04-.02,.07-.05,.11-.07Z"/></g></g></svg>