<?xml version="1.0" encoding="UTF-8"?><svg id="Layer_2" xmlns="http://www.w3.org/2000/svg" viewBox="0 0 83.22 83.22"><defs><style>.cls-1{fill:none;}.cls-2{fill:#fff;}</style></defs><g id="Layer_3"><rect class="cls-1" x="0" y="0" width="83.22" height="83.22"/><g id="Group_1988" transform="translate(0 0)"><path id="Path_2707" class="cls-2" d="M41.61,16.65c-2.3,0-4.16,1.86-4.16,4.16V62.42c0,2.3,1.86,4.16,4.16,4.16,2.3,0,4.16-1.86,4.16-4.16V20.81c0-2.3-1.86-4.16-4.16-4.16m-20.8,24.97c-2.3,0-4.16,1.86-4.16,4.16v16.65c0,2.3,1.86,4.16,4.16,4.16,2.3,0,4.16-1.86,4.16-4.16v-16.65c0-2.3-1.86-4.16-4.16-4.16m41.61-8.32c-2.3,0-4.16,1.86-4.16,4.16v24.97c0,2.3,1.86,4.16,4.16,4.16s4.16-1.86,4.16-4.16v-24.97c0-2.3-1.86-4.16-4.16-4.16M70.74,0H12.48C5.59,0,0,5.59,0,12.48H0v58.26c0,6.89,5.59,12.48,12.48,12.48h58.26c6.89,0,12.48-5.59,12.48-12.48h0V12.48C83.22,5.59,77.63,0,70.74,0h0m4.16,70.74c0,2.3-1.86,4.16-4.16,4.16H12.48c-2.3,0-4.16-1.86-4.16-4.16h0V12.48c0-2.3,1.86-4.16,4.16-4.16h58.25c2.3,0,4.16,1.86,4.16,4.16h0v58.26Z"/></g></g></svg>